<svg xmlns="http://www.w3.org/2000/svg" xmlns:xlink="http://www.w3.org/1999/xlink" width="1261" zoomAndPan="magnify" viewBox="0 0 945.75 1166.999949" height="1556" preserveAspectRatio="xMidYMid meet" version="1.0"><defs><clipPath id="59ee32d636"><path d="M 0 0.152344 L 945.5 0.152344 L 945.5 1166.84375 L 0 1166.84375 Z M 0 0.152344 " clip-rule="nonzero"/></clipPath><clipPath id="c457da7da7"><path d="M 316.714844 252.230469 L 634.757812 252.230469 L 634.757812 727.824219 L 316.714844 727.824219 Z M 316.714844 252.230469 " clip-rule="nonzero"/></clipPath><clipPath id="e475a4fd67"><path d="M 603.765625 567.199219 C 606.359375 565.585938 616.355469 570.8125 621.714844 573.957031 C 627.070312 576.886719 631.167969 571.703125 626.53125 568.917969 C 617.457031 563.550781 606.359375 559.929688 595.523438 560.738281 C 577.449219 546.914062 558.71875 538.527344 543.722656 531.664062 C 529.34375 525.039062 578.769531 522.519531 598.082031 529.640625 C 602.496094 531.269531 606.359375 526.027344 601.25 524.109375 C 577.6875 515.457031 550.714844 519.550781 525.503906 523.597656 C 506.648438 521.179688 496.15625 521.066406 481.78125 518.863281 L 481.78125 502.21875 C 481.851562 499.378906 481.929688 496.316406 482.015625 492.933594 L 540.972656 471.121094 L 602.867188 477.972656 L 605.066406 474.746094 L 552.246094 465.476562 L 634.613281 419.453125 L 632.574219 413.632812 L 576.878906 441.703125 L 619.261719 391.402344 L 615.585938 390.390625 L 553.117188 454.773438 L 481.574219 479.203125 C 481.4375 463.445312 481.21875 450.949219 481.210938 435.132812 L 499.6875 423.929688 L 545.394531 413.808594 L 545.457031 409.753906 L 515.703125 414.21875 L 557.496094 388.875 L 615.628906 374.164062 L 615.230469 371.59375 L 570.195312 378.339844 L 609.847656 351.410156 L 608.144531 348.800781 L 530.058594 397.660156 L 531.816406 396.039062 L 587.371094 333.121094 L 584.144531 331.847656 L 514.710938 402.085938 L 481.0625 419.726562 C 480.8125 400.71875 480.746094 388.367188 480.460938 369.40625 L 521.582031 340.753906 L 592.214844 322.230469 L 590.582031 318.933594 L 534.5 331.800781 L 574.960938 303.597656 L 573.222656 301.097656 L 529.335938 327.304688 L 540.972656 308.039062 L 541.351562 307.921875 L 541.289062 307.625 L 557.566406 280.363281 L 556.308594 278.558594 L 540.382812 301.058594 L 536.523438 272.113281 L 534.710938 272.78125 L 535.300781 305.285156 L 511.070312 338.308594 L 480.410156 358.148438 C 480.328125 340.726562 480.132812 326.578125 480 309.074219 L 510.050781 284.019531 L 526.019531 270.996094 L 523.601562 268.480469 L 506.648438 280.75 L 502.828125 258.886719 L 501.089844 260.484375 L 500.746094 283.476562 L 480 299.972656 L 480 253.78125 C 480 253.78125 475.398438 251.929688 475.398438 252.273438 C 475.398438 265.859375 475.152344 286.238281 474.84375 299.851562 L 453.355469 282.097656 L 453.359375 259.105469 L 451.738281 257.453125 L 447.601562 279.246094 L 430.761719 266.625 L 428.335938 269.140625 L 444.078125 282.410156 L 474.738281 308.992188 C 474.285156 326.082031 473.59375 340.933594 473.136719 357.691406 L 442.058594 336.691406 L 418.238281 303.207031 L 419.488281 270.644531 L 417.777344 270.035156 L 413.40625 298.761719 L 397.816406 276.027344 L 396.449219 277.777344 L 412.328125 305.324219 L 412.257812 305.628906 L 412.601562 305.734375 L 423.902344 325.328125 L 380.617188 298.25 L 378.6875 300.777344 L 418.589844 329.644531 L 362.9375 315.707031 L 361.121094 319.03125 L 431.449219 339.011719 L 472.648438 368.859375 C 471.9375 389.4375 471.128906 398.386719 470.714844 418.960938 L 436.835938 400.359375 L 369 328.738281 L 365.621094 330.0625 L 419.855469 393.976562 L 421.511719 395.621094 L 344.492188 345.1875 L 342.761719 347.898438 L 381.917969 375.558594 L 336.933594 367.902344 L 336.507812 370.460938 L 394.351562 386.359375 L 436.582031 412.972656 L 407.347656 407.441406 L 407.347656 411.53125 L 453.125 423.402344 L 470.546875 434.386719 C 470.402344 437.867188 470.320312 452.945312 470.320312 459.636719 L 470.320312 478.789062 L 395.988281 450.527344 L 336.292969 386.75 L 332.671875 387.734375 L 374.117188 438.835938 L 319.003906 409.640625 L 316.925781 415.410156 L 398.355469 463.03125 L 345.269531 471.28125 L 347.347656 474.5 L 409.46875 468.777344 L 470.320312 493.238281 C 470.644531 497.523438 470.964844 503.871094 471.242188 507.964844 C 471.394531 511.894531 471.523438 516.070312 471.523438 519.117188 C 457.09375 521.179688 446.503906 521.179688 427.667969 523.597656 C 402.453125 519.550781 375.460938 515.457031 351.917969 524.109375 C 346.792969 526.027344 350.664062 531.269531 355.085938 529.640625 C 374.390625 522.519531 423.816406 525.039062 409.445312 531.664062 C 394.429688 538.527344 375.71875 546.914062 357.652344 560.738281 C 346.792969 559.929688 335.710938 563.550781 326.609375 568.917969 C 322 571.703125 326.09375 576.886719 331.449219 573.957031 C 336.8125 570.8125 346.792969 565.585938 349.398438 567.199219 C 352.042969 568.820312 324.367188 590.175781 322.203125 594.585938 C 320.144531 599.011719 325.820312 601.210938 328.359375 598.175781 C 344.488281 577.96875 379.085938 551.347656 380.078125 554.476562 C 381.109375 557.601562 373.675781 573.992188 371.3125 583.726562 C 369.808594 589.644531 343.164062 598.589844 331.265625 606.761719 C 326.710938 609.730469 330.542969 614.417969 336.53125 611.09375 C 346.792969 605.148438 366.210938 594.21875 368.25 595.027344 C 370.28125 595.871094 363.804688 605.527344 360.117188 610.707031 C 354.058594 618.496094 348.402344 626.523438 341.859375 633.847656 C 337.515625 638.804688 343.441406 642.867188 346.402344 638.25 C 356.890625 622.90625 370.925781 610.789062 376.105469 592.371094 C 379.09375 581.398438 383.53125 569.191406 387.582031 558.425781 C 389.121094 554.757812 390.667969 551.109375 392.410156 547.671875 C 404.519531 540.941406 414.523438 537.324219 427.535156 532.550781 C 444.484375 526.417969 469.078125 526.929688 471.382812 528.492188 L 471.382812 559.460938 C 451.316406 559.101562 437.207031 564.871094 432.777344 564.96875 C 426.714844 564.589844 414.742188 562.355469 406.132812 565.164062 C 402.1875 566.390625 402.902344 572.0625 407.773438 570.53125 C 413.207031 568.820312 424.289062 568.820312 424.710938 570.429688 C 425.085938 572.039062 407.140625 583.515625 400.878906 592.734375 C 398.199219 596.65625 402.902344 601.261719 405.898438 596.71875 C 420.183594 575.667969 470.960938 560.738281 471.382812 570.84375 L 471.382812 594.769531 C 471.527344 600.035156 459.113281 598.261719 427.128906 611.324219 C 426.140625 611.695312 407.746094 620.6875 407.085938 620.847656 C 384.335938 624.667969 365.773438 630.554688 349.214844 646.695312 C 345.894531 650.105469 350.824219 656.78125 355.992188 650.859375 C 367.378906 637.824219 396.933594 627.195312 398.558594 630.175781 C 400.070312 631.355469 373.449219 651.285156 365.414062 666.921875 C 363.0625 671.707031 368.824219 674.339844 371.515625 669.761719 C 377.074219 660.847656 386.4375 648.609375 388.265625 649.121094 C 389.992188 649.703125 386.578125 665.460938 382.039062 677.597656 C 380.03125 683.027344 386.28125 686.5625 388.195312 681.738281 C 393.761719 667.832031 395.234375 645.011719 395.523438 644.0625 C 395.640625 643.132812 397.605469 641.421875 398.664062 640.265625 C 420.261719 615.898438 471.382812 603.53125 471.382812 609.179688 C 471.382812 614.902344 471.9375 628.683594 471.9375 643.476562 C 470.714844 646.328125 462.128906 650.792969 458.613281 651.167969 C 446.910156 652.558594 444.828125 653.933594 438.554688 655.542969 C 422.679688 659.613281 410.789062 674.566406 400.070312 686.457031 C 396.628906 690.304688 400.878906 694.757812 404.519531 690.9375 C 413.933594 680.390625 427.746094 666.503906 435.203125 663.660156 C 442.828125 660.847656 449.378906 657.304688 449.742188 661.683594 C 449.730469 664.066406 426.328125 686.253906 418.703125 704.023438 C 417.035156 708.0625 423.09375 710.683594 424.746094 707.167969 C 435.414062 686.253906 471.179688 649.929688 472.746094 657.484375 C 472.746094 672.554688 473.4375 683.722656 473.4375 698.804688 C 462.65625 704.441406 456.996094 711.605469 450.785156 721.121094 C 447.71875 725.8125 454.074219 727.851562 456.589844 723.828125 C 461.4375 716.246094 464.972656 713.210938 473.140625 708.222656 C 473.140625 715.53125 473.550781 720.976562 474.277344 725.03125 C 475.738281 729.472656 478.753906 727.871094 479.035156 725.375 C 479.035156 725.375 480 715.742188 480 708.488281 C 488.328125 713.324219 491.722656 716.246094 496.550781 723.828125 C 499.09375 727.851562 505.453125 725.8125 502.371094 721.121094 C 496.15625 711.605469 490.84375 704.441406 480 698.804688 C 480 683.722656 480.410156 672.554688 480.410156 657.484375 C 482.015625 649.929688 517.753906 686.253906 528.421875 707.167969 C 530.066406 710.683594 536.109375 708.0625 534.464844 704.023438 C 526.820312 686.253906 503.4375 664.066406 503.402344 661.683594 C 503.789062 657.304688 510.339844 660.847656 517.9375 663.660156 C 525.421875 666.503906 539.230469 680.390625 548.632812 690.9375 C 552.261719 694.757812 556.539062 690.304688 553.074219 686.457031 C 542.371094 674.566406 530.480469 659.613281 514.605469 655.542969 C 508.335938 653.933594 506.25 652.558594 494.539062 651.167969 C 491.046875 650.792969 482.429688 646.328125 481.25 643.476562 C 481.25 628.683594 481.78125 614.902344 481.78125 609.179688 C 481.78125 603.53125 532.882812 615.898438 554.496094 640.265625 C 555.5625 641.421875 557.496094 643.132812 557.65625 644.0625 C 557.917969 645.011719 559.40625 667.832031 564.980469 681.738281 C 566.878906 686.5625 573.140625 683.027344 571.128906 677.597656 C 566.589844 665.460938 563.160156 649.703125 564.890625 649.121094 C 566.722656 648.609375 576.078125 660.847656 581.65625 669.761719 C 584.347656 674.339844 590.097656 671.707031 587.75 666.921875 C 579.710938 651.285156 553.089844 631.355469 554.601562 630.175781 C 556.230469 627.195312 585.769531 637.824219 597.175781 650.859375 C 602.3125 656.78125 607.273438 650.105469 603.929688 646.695312 C 587.371094 630.554688 568.796875 624.667969 546.074219 620.847656 C 545.394531 620.6875 527.03125 611.695312 526.019531 611.324219 C 494.054688 598.261719 481.621094 600.035156 481.78125 594.769531 L 481.78125 570.84375 C 482.199219 560.738281 532.984375 575.667969 547.269531 596.71875 C 550.242188 601.261719 554.972656 596.65625 552.261719 592.734375 C 546.027344 583.515625 528.078125 572.039062 528.429688 570.429688 C 528.863281 568.820312 539.960938 568.820312 545.386719 570.53125 C 550.242188 572.0625 550.972656 566.390625 547.015625 565.164062 C 538.429688 562.355469 526.433594 564.589844 520.367188 564.96875 C 515.941406 564.871094 501.863281 559.101562 481.78125 559.460938 L 481.78125 528.492188 C 484.085938 526.929688 508.660156 526.417969 525.625 532.550781 C 538.640625 537.324219 548.625 540.941406 560.734375 547.671875 C 562.492188 551.109375 564.039062 554.757812 565.578125 558.425781 C 569.605469 569.191406 574.054688 581.398438 577.054688 592.371094 C 582.234375 610.789062 596.253906 622.90625 606.746094 638.25 C 609.726562 642.867188 615.636719 638.804688 611.308594 633.847656 C 604.738281 626.523438 599.085938 618.496094 593.042969 610.707031 C 589.359375 605.527344 582.886719 595.871094 584.917969 595.027344 C 586.949219 594.21875 606.367188 605.148438 616.628906 611.09375 C 622.621094 614.417969 626.453125 609.730469 621.898438 606.761719 C 609.972656 598.589844 583.335938 589.644531 581.847656 583.726562 C 579.492188 573.992188 572.035156 557.601562 573.089844 554.476562 C 574.054688 551.347656 608.679688 577.96875 624.800781 598.175781 C 627.339844 601.210938 632.996094 599.011719 630.964844 594.585938 C 628.800781 590.175781 601.097656 568.820312 603.765625 567.199219 Z M 603.765625 567.199219 " clip-rule="nonzero"/></clipPath><clipPath id="2dbbd66714"><path d="M 0.714844 0.230469 L 318.632812 0.230469 L 318.632812 475.824219 L 0.714844 475.824219 Z M 0.714844 0.230469 " clip-rule="nonzero"/></clipPath><clipPath id="af271fcd43"><path d="M 287.765625 315.199219 C 290.359375 313.585938 300.355469 318.8125 305.714844 321.957031 C 311.070312 324.886719 315.167969 319.703125 310.53125 316.917969 C 301.457031 311.550781 290.359375 307.929688 279.523438 308.738281 C 261.449219 294.914062 242.71875 286.527344 227.722656 279.664062 C 213.34375 273.039062 262.769531 270.519531 282.082031 277.640625 C 286.496094 279.269531 290.359375 274.027344 285.25 272.109375 C 261.6875 263.457031 234.714844 267.550781 209.503906 271.597656 C 190.648438 269.179688 180.15625 269.066406 165.78125 266.863281 L 165.78125 250.21875 C 165.851562 247.378906 165.929688 244.316406 166.015625 240.933594 L 224.972656 219.121094 L 286.867188 225.972656 L 289.066406 222.746094 L 236.246094 213.476562 L 318.613281 167.453125 L 316.574219 161.632812 L 260.878906 189.703125 L 303.261719 139.402344 L 299.585938 138.390625 L 237.117188 202.773438 L 165.574219 227.203125 C 165.4375 211.445312 165.21875 198.949219 165.210938 183.132812 L 183.6875 171.929688 L 229.394531 161.808594 L 229.457031 157.753906 L 199.703125 162.21875 L 241.496094 136.875 L 299.628906 122.164062 L 299.230469 119.59375 L 254.195312 126.339844 L 293.847656 99.410156 L 292.144531 96.800781 L 214.058594 145.660156 L 215.816406 144.039062 L 271.371094 81.121094 L 268.144531 79.847656 L 198.710938 150.085938 L 165.0625 167.726562 C 164.8125 148.71875 164.746094 136.367188 164.460938 117.40625 L 205.582031 88.753906 L 276.214844 70.230469 L 274.582031 66.933594 L 218.5 79.800781 L 258.960938 51.597656 L 257.222656 49.097656 L 213.335938 75.304688 L 224.972656 56.039062 L 225.351562 55.921875 L 225.289062 55.625 L 241.566406 28.363281 L 240.308594 26.558594 L 224.382812 49.058594 L 220.523438 20.113281 L 218.710938 20.78125 L 219.300781 53.285156 L 195.070312 86.308594 L 164.410156 106.148438 C 164.328125 88.726562 164.132812 74.578125 164 57.074219 L 194.050781 32.019531 L 210.019531 18.996094 L 207.601562 16.480469 L 190.648438 28.75 L 186.828125 6.886719 L 185.089844 8.484375 L 184.746094 31.476562 L 164 47.972656 L 164 1.78125 C 164 1.78125 159.398438 -0.0703125 159.398438 0.273438 C 159.398438 13.859375 159.152344 34.238281 158.84375 47.851562 L 137.355469 30.097656 L 137.359375 7.105469 L 135.738281 5.453125 L 131.601562 27.246094 L 114.761719 14.625 L 112.335938 17.140625 L 128.078125 30.410156 L 158.738281 56.992188 C 158.285156 74.082031 157.59375 88.933594 157.136719 105.691406 L 126.058594 84.691406 L 102.238281 51.207031 L 103.488281 18.644531 L 101.777344 18.035156 L 97.40625 46.761719 L 81.816406 24.027344 L 80.449219 25.777344 L 96.328125 53.324219 L 96.257812 53.628906 L 96.601562 53.734375 L 107.902344 73.328125 L 64.617188 46.25 L 62.6875 48.777344 L 102.589844 77.644531 L 46.9375 63.707031 L 45.121094 67.03125 L 115.449219 87.011719 L 156.648438 116.859375 C 155.9375 137.4375 155.128906 146.386719 154.714844 166.960938 L 120.835938 148.359375 L 53 76.738281 L 49.621094 78.0625 L 103.855469 141.976562 L 105.511719 143.621094 L 28.492188 93.1875 L 26.761719 95.898438 L 65.917969 123.558594 L 20.933594 115.902344 L 20.507812 118.460938 L 78.351562 134.359375 L 120.582031 160.972656 L 91.347656 155.441406 L 91.347656 159.53125 L 137.125 171.402344 L 154.546875 182.386719 C 154.402344 185.867188 154.320312 200.945312 154.320312 207.636719 L 154.320312 226.789062 L 79.988281 198.527344 L 20.292969 134.75 L 16.671875 135.734375 L 58.117188 186.835938 L 3.003906 157.640625 L 0.925781 163.410156 L 82.355469 211.03125 L 29.269531 219.28125 L 31.347656 222.5 L 93.46875 216.777344 L 154.320312 241.238281 C 154.644531 245.523438 154.964844 251.871094 155.242188 255.964844 C 155.394531 259.894531 155.523438 264.070312 155.523438 267.117188 C 141.09375 269.179688 130.503906 269.179688 111.667969 271.597656 C 86.453125 267.550781 59.460938 263.457031 35.917969 272.109375 C 30.792969 274.027344 34.664062 279.269531 39.085938 277.640625 C 58.390625 270.519531 107.816406 273.039062 93.445312 279.664062 C 78.429688 286.527344 59.71875 294.914062 41.652344 308.738281 C 30.792969 307.929688 19.710938 311.550781 10.609375 316.917969 C 6 319.703125 10.09375 324.886719 15.449219 321.957031 C 20.8125 318.8125 30.792969 313.585938 33.398438 315.199219 C 36.042969 316.820312 8.367188 338.175781 6.203125 342.585938 C 4.144531 347.011719 9.820312 349.210938 12.359375 346.175781 C 28.488281 325.96875 63.085938 299.347656 64.078125 302.476562 C 65.109375 305.601562 57.675781 321.992188 55.3125 331.726562 C 53.808594 337.644531 27.164062 346.589844 15.265625 354.761719 C 10.710938 357.730469 14.542969 362.417969 20.53125 359.09375 C 30.792969 353.148438 50.210938 342.21875 52.25 343.027344 C 54.28125 343.871094 47.804688 353.527344 44.117188 358.707031 C 38.058594 366.496094 32.402344 374.523438 25.859375 381.847656 C 21.515625 386.804688 27.441406 390.867188 30.402344 386.25 C 40.890625 370.90625 54.925781 358.789062 60.105469 340.371094 C 63.09375 329.398438 67.53125 317.191406 71.582031 306.425781 C 73.121094 302.757812 74.667969 299.109375 76.410156 295.671875 C 88.519531 288.941406 98.523438 285.324219 111.535156 280.550781 C 128.484375 274.417969 153.078125 274.929688 155.382812 276.492188 L 155.382812 307.460938 C 135.316406 307.101562 121.207031 312.871094 116.777344 312.96875 C 110.714844 312.589844 98.742188 310.355469 90.132812 313.164062 C 86.1875 314.390625 86.902344 320.0625 91.773438 318.53125 C 97.207031 316.820312 108.289062 316.820312 108.710938 318.429688 C 109.085938 320.039062 91.140625 331.515625 84.878906 340.734375 C 82.199219 344.65625 86.902344 349.261719 89.898438 344.71875 C 104.183594 323.667969 154.960938 308.738281 155.382812 318.84375 L 155.382812 342.769531 C 155.527344 348.035156 143.113281 346.261719 111.128906 359.324219 C 110.140625 359.695312 91.746094 368.6875 91.085938 368.847656 C 68.335938 372.667969 49.773438 378.554688 33.214844 394.695312 C 29.894531 398.105469 34.824219 404.78125 39.992188 398.859375 C 51.378906 385.824219 80.933594 375.195312 82.558594 378.175781 C 84.070312 379.355469 57.449219 399.285156 49.414062 414.921875 C 47.0625 419.707031 52.824219 422.339844 55.515625 417.761719 C 61.074219 408.847656 70.4375 396.609375 72.265625 397.121094 C 73.992188 397.703125 70.578125 413.460938 66.039062 425.597656 C 64.03125 431.027344 70.28125 434.5625 72.195312 429.738281 C 77.761719 415.832031 79.234375 393.011719 79.523438 392.0625 C 79.640625 391.132812 81.605469 389.421875 82.664062 388.265625 C 104.261719 363.898438 155.382812 351.53125 155.382812 357.179688 C 155.382812 362.902344 155.9375 376.683594 155.9375 391.476562 C 154.714844 394.328125 146.128906 398.792969 142.613281 399.167969 C 130.910156 400.558594 128.828125 401.933594 122.554688 403.542969 C 106.679688 407.613281 94.789062 422.566406 84.070312 434.457031 C 80.628906 438.304688 84.878906 442.757812 88.519531 438.9375 C 97.933594 428.390625 111.746094 414.503906 119.203125 411.660156 C 126.828125 408.847656 133.378906 405.304688 133.742188 409.683594 C 133.730469 412.066406 110.328125 434.253906 102.703125 452.023438 C 101.035156 456.0625 107.09375 458.683594 108.746094 455.167969 C 119.414062 434.253906 155.179688 397.929688 156.746094 405.484375 C 156.746094 420.554688 157.4375 431.722656 157.4375 446.804688 C 146.65625 452.441406 140.996094 459.605469 134.785156 469.121094 C 131.71875 473.8125 138.074219 475.851562 140.589844 471.828125 C 145.4375 464.246094 148.972656 461.210938 157.140625 456.222656 C 157.140625 463.53125 157.550781 468.976562 158.277344 473.03125 C 159.738281 477.472656 162.753906 475.871094 163.035156 473.375 C 163.035156 473.375 164 463.742188 164 456.488281 C 172.328125 461.324219 175.722656 464.246094 180.550781 471.828125 C 183.09375 475.851562 189.453125 473.8125 186.371094 469.121094 C 180.15625 459.605469 174.84375 452.441406 164 446.804688 C 164 431.722656 164.410156 420.554688 164.410156 405.484375 C 166.015625 397.929688 201.753906 434.253906 212.421875 455.167969 C 214.066406 458.683594 220.109375 456.0625 218.464844 452.023438 C 210.820312 434.253906 187.4375 412.066406 187.402344 409.683594 C 187.789062 405.304688 194.339844 408.847656 201.9375 411.660156 C 209.421875 414.503906 223.230469 428.390625 232.632812 438.9375 C 236.261719 442.757812 240.539062 438.304688 237.074219 434.457031 C 226.371094 422.566406 214.480469 407.613281 198.605469 403.542969 C 192.335938 401.933594 190.25 400.558594 178.539062 399.167969 C 175.046875 398.792969 166.429688 394.328125 165.25 391.476562 C 165.25 376.683594 165.78125 362.902344 165.78125 357.179688 C 165.78125 351.53125 216.882812 363.898438 238.496094 388.265625 C 239.5625 389.421875 241.496094 391.132812 241.65625 392.0625 C 241.917969 393.011719 243.40625 415.832031 248.980469 429.738281 C 250.878906 434.5625 257.140625 431.027344 255.128906 425.597656 C 250.589844 413.460938 247.160156 397.703125 248.890625 397.121094 C 250.722656 396.609375 260.078125 408.847656 265.65625 417.761719 C 268.347656 422.339844 274.097656 419.707031 271.75 414.921875 C 263.710938 399.285156 237.089844 379.355469 238.601562 378.175781 C 240.230469 375.195312 269.769531 385.824219 281.175781 398.859375 C 286.3125 404.78125 291.273438 398.105469 287.929688 394.695312 C 271.371094 378.554688 252.796875 372.667969 230.074219 368.847656 C 229.394531 368.6875 211.03125 359.695312 210.019531 359.324219 C 178.054688 346.261719 165.621094 348.035156 165.78125 342.769531 L 165.78125 318.84375 C 166.199219 308.738281 216.984375 323.667969 231.269531 344.71875 C 234.242188 349.261719 238.972656 344.65625 236.261719 340.734375 C 230.027344 331.515625 212.078125 320.039062 212.429688 318.429688 C 212.863281 316.820312 223.960938 316.820312 229.386719 318.53125 C 234.242188 320.0625 234.972656 314.390625 231.015625 313.164062 C 222.429688 310.355469 210.433594 312.589844 204.367188 312.96875 C 199.941406 312.871094 185.863281 307.101562 165.78125 307.460938 L 165.78125 276.492188 C 168.085938 274.929688 192.660156 274.417969 209.625 280.550781 C 222.640625 285.324219 232.625 288.941406 244.734375 295.671875 C 246.492188 299.109375 248.039062 302.757812 249.578125 306.425781 C 253.605469 317.191406 258.054688 329.398438 261.054688 340.371094 C 266.234375 358.789062 280.253906 370.90625 290.746094 386.25 C 293.726562 390.867188 299.636719 386.804688 295.308594 381.847656 C 288.738281 374.523438 283.085938 366.496094 277.042969 358.707031 C 273.359375 353.527344 266.886719 343.871094 268.917969 343.027344 C 270.949219 342.21875 290.367188 353.148438 300.628906 359.09375 C 306.621094 362.417969 310.453125 357.730469 305.898438 354.761719 C 293.972656 346.589844 267.335938 337.644531 265.847656 331.726562 C 263.492188 321.992188 256.035156 305.601562 257.089844 302.476562 C 258.054688 299.347656 292.679688 325.96875 308.800781 346.175781 C 311.339844 349.210938 316.996094 347.011719 314.964844 342.585938 C 312.800781 338.175781 285.097656 316.820312 287.765625 315.199219 Z M 287.765625 315.199219 " clip-rule="nonzero"/></clipPath><clipPath id="117d75104c"><rect x="0" width="319" y="0" height="476"/></clipPath><clipPath id="d8ca2d56e0"><path d="M 222.296875 804.46875 L 262.558594 804.46875 L 262.558594 852.433594 L 222.296875 852.433594 Z M 222.296875 804.46875 " clip-rule="nonzero"/></clipPath><clipPath id="806f37d265"><path d="M 237.789062 807.953125 L 237.789062 827.265625 L 256.878906 827.265625 L 256.878906 830.527344 L 237.789062 830.527344 L 237.789062 844.71875 C 237.789062 845.761719 237.964844 846.601562 238.3125 847.230469 C 238.660156 847.863281 239.125 848.347656 239.703125 848.683594 C 240.28125 849.019531 240.972656 849.242188 241.769531 849.351562 C 242.570312 849.460938 243.40625 849.515625 244.28125 849.515625 L 246.910156 849.515625 L 246.910156 852.320312 L 222.296875 852.320312 L 222.296875 849.515625 L 223.300781 849.515625 C 224.175781 849.515625 225.007812 849.464844 225.792969 849.367188 C 226.578125 849.269531 227.269531 849.070312 227.859375 848.765625 C 228.453125 848.460938 228.921875 848.007812 229.269531 847.410156 C 229.617188 846.8125 229.792969 846.023438 229.792969 845.046875 L 229.792969 811.964844 C 229.792969 810.988281 229.617188 810.199219 229.269531 809.601562 C 228.921875 809.003906 228.453125 808.539062 227.859375 808.214844 C 227.269531 807.886719 226.578125 807.675781 225.792969 807.578125 C 225.007812 807.480469 224.175781 807.429688 223.300781 807.429688 L 222.296875 807.429688 L 222.296875 804.625 L 262.171875 804.625 L 262.558594 816.304688 L 258.460938 816.304688 L 258.078125 813.433594 C 257.972656 812.671875 257.765625 811.960938 257.457031 811.296875 C 257.148438 810.632812 256.703125 810.058594 256.125 809.566406 C 255.546875 809.078125 254.816406 808.6875 253.941406 808.394531 C 253.066406 808.101562 252.011719 807.953125 250.773438 807.953125 Z M 237.789062 807.953125 " clip-rule="nonzero"/></clipPath><clipPath id="248bb10aff"><path d="M 0.296875 0.46875 L 40.558594 0.46875 L 40.558594 48.410156 L 0.296875 48.410156 Z M 0.296875 0.46875 " clip-rule="nonzero"/></clipPath><clipPath id="aa8bd4f616"><path d="M 15.789062 3.953125 L 15.789062 23.265625 L 34.878906 23.265625 L 34.878906 26.527344 L 15.789062 26.527344 L 15.789062 40.71875 C 15.789062 41.761719 15.964844 42.601562 16.3125 43.230469 C 16.660156 43.863281 17.125 44.347656 17.703125 44.683594 C 18.28125 45.019531 18.972656 45.242188 19.769531 45.351562 C 20.570312 45.460938 21.40625 45.515625 22.28125 45.515625 L 24.910156 45.515625 L 24.910156 48.320312 L 0.296875 48.320312 L 0.296875 45.515625 L 1.300781 45.515625 C 2.175781 45.515625 3.007812 45.464844 3.792969 45.367188 C 4.578125 45.269531 5.269531 45.070312 5.859375 44.765625 C 6.453125 44.460938 6.921875 44.007812 7.269531 43.410156 C 7.617188 42.8125 7.792969 42.023438 7.792969 41.046875 L 7.792969 7.964844 C 7.792969 6.988281 7.617188 6.199219 7.269531 5.601562 C 6.921875 5.003906 6.453125 4.539062 5.859375 4.214844 C 5.269531 3.886719 4.578125 3.675781 3.792969 3.578125 C 3.007812 3.480469 2.175781 3.429688 1.300781 3.429688 L 0.296875 3.429688 L 0.296875 0.625 L 40.171875 0.625 L 40.558594 12.304688 L 36.460938 12.304688 L 36.078125 9.433594 C 35.972656 8.671875 35.765625 7.960938 35.457031 7.296875 C 35.148438 6.632812 34.703125 6.058594 34.125 5.566406 C 33.546875 5.078125 32.816406 4.6875 31.941406 4.394531 C 31.066406 4.101562 30.011719 3.953125 28.773438 3.953125 Z M 15.789062 3.953125 " clip-rule="nonzero"/></clipPath><clipPath id="c55cd23e5e"><rect x="0" width="41" y="0" height="49"/></clipPath><clipPath id="2d0b219ddd"><path d="M 275.015625 804.636719 L 329.25 804.636719 L 329.25 852.84375 L 275.015625 852.84375 Z M 275.015625 804.636719 " clip-rule="nonzero"/></clipPath><clipPath id="9989a7990d"><path d="M 302.371094 852.84375 C 299.261719 852.84375 296.476562 852.566406 294.007812 852.015625 C 291.542969 851.460938 289.457031 850.582031 287.746094 849.378906 C 286.039062 848.175781 284.738281 846.625 283.835938 844.726562 C 282.9375 842.832031 282.488281 840.527344 282.488281 837.816406 L 282.488281 811.953125 C 282.488281 810.980469 282.316406 810.191406 281.96875 809.597656 C 281.621094 809 281.152344 808.539062 280.5625 808.214844 C 279.972656 807.890625 279.285156 807.679688 278.5 807.578125 C 277.71875 807.480469 276.890625 807.433594 276.015625 807.433594 L 275.015625 807.433594 L 275.015625 804.636719 L 297.976562 804.636719 L 297.976562 807.433594 L 296.9375 807.433594 C 296.0625 807.433594 295.226562 807.488281 294.433594 807.59375 C 293.636719 807.703125 292.949219 807.925781 292.371094 808.265625 C 291.792969 808.597656 291.332031 809.082031 290.984375 809.710938 C 290.636719 810.339844 290.464844 811.171875 290.464844 812.214844 L 290.464844 838.207031 C 290.464844 840.136719 290.792969 841.777344 291.445312 843.132812 C 292.101562 844.488281 293.011719 845.589844 294.179688 846.4375 C 295.351562 847.28125 296.738281 847.898438 298.34375 848.289062 C 299.945312 848.679688 301.714844 848.875 303.640625 848.875 C 305.925781 848.875 307.898438 848.613281 309.554688 848.09375 C 311.210938 847.574219 312.585938 846.851562 313.675781 845.929688 C 314.769531 845.011719 315.578125 843.914062 316.101562 842.644531 C 316.632812 841.375 316.894531 839.984375 316.894531 838.464844 L 316.894531 811.953125 C 316.894531 810.980469 316.71875 810.191406 316.375 809.597656 C 316.027344 809 315.558594 808.539062 314.96875 808.214844 C 314.375 807.890625 313.691406 807.679688 312.90625 807.578125 C 312.125 807.480469 311.296875 807.433594 310.421875 807.433594 L 309.417969 807.433594 L 309.417969 804.636719 L 329.222656 804.636719 L 329.222656 807.433594 L 328.183594 807.433594 C 327.308594 807.433594 326.472656 807.488281 325.679688 807.59375 C 324.882812 807.703125 324.195312 807.925781 323.617188 808.265625 C 323.039062 808.597656 322.578125 809.082031 322.230469 809.710938 C 321.882812 810.339844 321.710938 811.171875 321.710938 812.214844 L 321.710938 838.59375 C 321.710938 840.808594 321.292969 842.796875 320.457031 844.566406 C 319.621094 846.332031 318.390625 847.828125 316.757812 849.054688 C 315.128906 850.28125 313.105469 851.21875 310.691406 851.867188 C 308.277344 852.519531 305.503906 852.84375 302.371094 852.84375 Z M 302.371094 852.84375 " clip-rule="nonzero"/></clipPath><clipPath id="00eb1b251f"><path d="M 0.015625 0.636719 L 54.25 0.636719 L 54.25 48.84375 L 0.015625 48.84375 Z M 0.015625 0.636719 " clip-rule="nonzero"/></clipPath><clipPath id="bd7aa40af9"><path d="M 27.371094 48.84375 C 24.261719 48.84375 21.476562 48.566406 19.007812 48.015625 C 16.542969 47.460938 14.457031 46.582031 12.746094 45.378906 C 11.039062 44.175781 9.738281 42.625 8.835938 40.726562 C 7.9375 38.832031 7.488281 36.527344 7.488281 33.816406 L 7.488281 7.953125 C 7.488281 6.980469 7.316406 6.191406 6.96875 5.597656 C 6.621094 5 6.152344 4.539062 5.5625 4.214844 C 4.972656 3.890625 4.285156 3.679688 3.5 3.578125 C 2.71875 3.480469 1.890625 3.433594 1.015625 3.433594 L 0.015625 3.433594 L 0.015625 0.636719 L 22.976562 0.636719 L 22.976562 3.433594 L 21.9375 3.433594 C 21.0625 3.433594 20.226562 3.488281 19.433594 3.59375 C 18.636719 3.703125 17.949219 3.925781 17.371094 4.265625 C 16.792969 4.597656 16.332031 5.082031 15.984375 5.710938 C 15.636719 6.339844 15.464844 7.171875 15.464844 8.214844 L 15.464844 34.207031 C 15.464844 36.136719 15.792969 37.777344 16.445312 39.132812 C 17.101562 40.488281 18.011719 41.589844 19.179688 42.4375 C 20.351562 43.28125 21.738281 43.898438 23.34375 44.289062 C 24.945312 44.679688 26.714844 44.875 28.640625 44.875 C 30.925781 44.875 32.898438 44.613281 34.554688 44.09375 C 36.210938 43.574219 37.585938 42.851562 38.675781 41.929688 C 39.769531 41.011719 40.578125 39.914062 41.101562 38.644531 C 41.632812 37.375 41.894531 35.984375 41.894531 34.464844 L 41.894531 7.953125 C 41.894531 6.980469 41.71875 6.191406 41.375 5.597656 C 41.027344 5 40.558594 4.539062 39.96875 4.214844 C 39.375 3.890625 38.691406 3.679688 37.90625 3.578125 C 37.125 3.480469 36.296875 3.433594 35.421875 3.433594 L 34.417969 3.433594 L 34.417969 0.636719 L 54.222656 0.636719 L 54.222656 3.433594 L 53.183594 3.433594 C 52.308594 3.433594 51.472656 3.488281 50.679688 3.59375 C 49.882812 3.703125 49.195312 3.925781 48.617188 4.265625 C 48.039062 4.597656 47.578125 5.082031 47.230469 5.710938 C 46.882812 6.339844 46.710938 7.171875 46.710938 8.214844 L 46.710938 34.59375 C 46.710938 36.808594 46.292969 38.796875 45.457031 40.566406 C 44.621094 42.332031 43.390625 43.828125 41.757812 45.054688 C 40.128906 46.28125 38.105469 47.21875 35.691406 47.867188 C 33.277344 48.519531 30.503906 48.84375 27.371094 48.84375 Z M 27.371094 48.84375 " clip-rule="nonzero"/></clipPath><clipPath id="46fc325516"><rect x="0" width="55" y="0" height="49"/></clipPath><clipPath id="4c52e43d3f"><path d="M 341.960938 803.976562 L 377.28125 803.976562 L 377.28125 853 L 341.960938 853 Z M 341.960938 803.976562 " clip-rule="nonzero"/></clipPath><clipPath id="780e370f08"><path d="M 357.703125 852.933594 C 355.128906 852.933594 352.859375 852.707031 350.894531 852.25 C 348.925781 851.792969 347.28125 851.160156 345.957031 850.34375 C 344.628906 849.53125 343.632812 848.542969 342.964844 847.382812 C 342.296875 846.21875 341.960938 844.945312 341.960938 843.554688 C 341.960938 842.207031 342.457031 841.121094 343.449219 840.296875 C 344.4375 839.472656 345.84375 839.058594 347.671875 839.058594 C 347.75 840.449219 348 841.785156 348.421875 843.066406 C 348.847656 844.347656 349.484375 845.476562 350.332031 846.453125 C 351.183594 847.429688 352.261719 848.210938 353.574219 848.800781 C 354.886719 849.382812 356.46875 849.675781 358.320312 849.675781 C 361.867188 849.675781 364.640625 848.957031 366.632812 847.511719 C 368.625 846.066406 369.625 843.988281 369.625 841.273438 C 369.625 840.058594 369.417969 838.984375 369.003906 838.050781 C 368.59375 837.113281 367.914062 836.253906 366.960938 835.460938 C 366.011719 834.667969 364.757812 833.90625 363.199219 833.179688 C 361.644531 832.453125 359.707031 831.6875 357.394531 830.882812 C 354.949219 830.035156 352.816406 829.128906 350.992188 828.164062 C 349.164062 827.195312 347.648438 826.125 346.4375 824.941406 C 345.230469 823.757812 344.328125 822.4375 343.738281 820.980469 C 343.144531 819.527344 342.851562 817.886719 342.851562 816.0625 C 342.851562 814.152344 343.28125 812.449219 344.144531 810.949219 C 345.003906 809.449219 346.207031 808.1875 347.75 807.15625 C 349.292969 806.125 351.117188 805.335938 353.226562 804.792969 C 355.335938 804.25 357.636719 803.976562 360.132812 803.976562 C 362.5 803.976562 364.59375 804.183594 366.421875 804.597656 C 368.246094 805.011719 369.789062 805.5625 371.050781 806.257812 C 372.308594 806.953125 373.269531 807.753906 373.925781 808.652344 C 374.582031 809.554688 374.90625 810.492188 374.90625 811.472656 C 374.90625 812.902344 374.347656 813.984375 373.230469 814.710938 C 372.113281 815.4375 370.601562 815.804688 368.699219 815.804688 C 368.699219 814.761719 368.550781 813.734375 368.253906 812.722656 C 367.957031 811.714844 367.464844 810.8125 366.769531 810.019531 C 366.074219 809.226562 365.160156 808.582031 364.03125 808.082031 C 362.898438 807.582031 361.496094 807.335938 359.824219 807.335938 C 358.304688 807.335938 356.949219 807.511719 355.753906 807.871094 C 354.558594 808.230469 353.550781 808.738281 352.726562 809.402344 C 351.902344 810.066406 351.273438 810.863281 350.835938 811.796875 C 350.398438 812.730469 350.179688 813.773438 350.179688 814.921875 C 350.179688 816.25 350.386719 817.414062 350.796875 818.425781 C 351.207031 819.433594 351.894531 820.347656 352.859375 821.160156 C 353.824219 821.976562 355.089844 822.746094 356.660156 823.472656 C 358.230469 824.203125 360.160156 824.957031 362.445312 825.738281 C 364.761719 826.539062 366.824219 827.386719 368.640625 828.277344 C 370.453125 829.167969 371.988281 830.160156 373.25 831.257812 C 374.507812 832.355469 375.472656 833.582031 376.140625 834.9375 C 376.8125 836.296875 377.144531 837.832031 377.144531 839.546875 C 377.144531 841.65625 376.6875 843.539062 375.777344 845.199219 C 374.863281 846.859375 373.558594 848.265625 371.863281 849.417969 C 370.164062 850.570312 368.121094 851.441406 365.726562 852.039062 C 363.335938 852.636719 360.660156 852.933594 357.703125 852.933594 Z M 357.703125 852.933594 " clip-rule="nonzero"/></clipPath><clipPath id="ae68b7bb93"><path d="M 0.960938 0.976562 L 36.179688 0.976562 L 36.179688 50 L 0.960938 50 Z M 0.960938 0.976562 " clip-rule="nonzero"/></clipPath><clipPath id="6b5fa3f2c8"><path d="M 16.703125 49.933594 C 14.128906 49.933594 11.859375 49.707031 9.894531 49.25 C 7.925781 48.792969 6.28125 48.160156 4.957031 47.34375 C 3.628906 46.53125 2.632812 45.542969 1.964844 44.382812 C 1.296875 43.21875 0.960938 41.945312 0.960938 40.554688 C 0.960938 39.207031 1.457031 38.121094 2.449219 37.296875 C 3.4375 36.472656 4.84375 36.058594 6.671875 36.058594 C 6.75 37.449219 7 38.785156 7.421875 40.066406 C 7.847656 41.347656 8.484375 42.476562 9.332031 43.453125 C 10.183594 44.429688 11.261719 45.210938 12.574219 45.800781 C 13.886719 46.382812 15.46875 46.675781 17.320312 46.675781 C 20.867188 46.675781 23.640625 45.957031 25.632812 44.511719 C 27.625 43.066406 28.625 40.988281 28.625 38.273438 C 28.625 37.058594 28.417969 35.984375 28.003906 35.050781 C 27.59375 34.113281 26.914062 33.253906 25.960938 32.460938 C 25.011719 31.667969 23.757812 30.90625 22.199219 30.179688 C 20.644531 29.453125 18.707031 28.6875 16.394531 27.882812 C 13.949219 27.035156 11.816406 26.128906 9.992188 25.164062 C 8.164062 24.195312 6.648438 23.125 5.4375 21.941406 C 4.230469 20.757812 3.328125 19.4375 2.738281 17.980469 C 2.144531 16.527344 1.851562 14.886719 1.851562 13.0625 C 1.851562 11.152344 2.28125 9.449219 3.144531 7.949219 C 4.003906 6.449219 5.207031 5.1875 6.75 4.15625 C 8.292969 3.125 10.117188 2.335938 12.226562 1.792969 C 14.335938 1.25 16.636719 0.976562 19.132812 0.976562 C 21.5 0.976562 23.59375 1.183594 25.421875 1.597656 C 27.246094 2.011719 28.789062 2.5625 30.050781 3.257812 C 31.308594 3.953125 32.269531 4.753906 32.925781 5.652344 C 33.582031 6.554688 33.90625 7.492188 33.90625 8.472656 C 33.90625 9.902344 33.347656 10.984375 32.230469 11.710938 C 31.113281 12.4375 29.601562 12.804688 27.699219 12.804688 C 27.699219 11.761719 27.550781 10.734375 27.253906 9.722656 C 26.957031 8.714844 26.464844 7.8125 25.769531 7.019531 C 25.074219 6.226562 24.160156 5.582031 23.03125 5.082031 C 21.898438 4.582031 20.496094 4.335938 18.824219 4.335938 C 17.304688 4.335938 15.949219 4.511719 14.753906 4.871094 C 13.558594 5.230469 12.550781 5.738281 11.726562 6.402344 C 10.902344 7.066406 10.273438 7.863281 9.835938 8.796875 C 9.398438 9.730469 9.179688 10.773438 9.179688 11.921875 C 9.179688 13.25 9.386719 14.414062 9.796875 15.425781 C 10.207031 16.433594 10.894531 17.347656 11.859375 18.160156 C 12.824219 18.976562 14.089844 19.746094 15.660156 20.472656 C 17.230469 21.203125 19.160156 21.957031 21.445312 22.738281 C 23.761719 23.539062 25.824219 24.386719 27.640625 25.277344 C 29.453125 26.167969 30.988281 27.160156 32.25 28.257812 C 33.507812 29.355469 34.472656 30.582031 35.140625 31.9375 C 35.8125 33.296875 36.144531 34.832031 36.144531 36.546875 C 36.144531 38.65625 35.6875 40.539062 34.777344 42.199219 C 33.863281 43.859375 32.558594 45.265625 30.863281 46.417969 C 29.164062 47.570312 27.121094 48.441406 24.726562 49.039062 C 22.335938 49.636719 19.660156 49.933594 16.703125 49.933594 Z M 16.703125 49.933594 " clip-rule="nonzero"/></clipPath><clipPath id="61cf0722e8"><rect x="0" width="37" y="0" height="50"/></clipPath><clipPath id="80f461c708"><path d="M 391.808594 804.4375 L 448.820312 804.4375 L 448.820312 852.320312 L 391.808594 852.320312 Z M 391.808594 804.4375 " clip-rule="nonzero"/></clipPath><clipPath id="f64aee8350"><path d="M 425.6875 852.320312 L 425.6875 849.515625 L 426.730469 849.515625 C 427.632812 849.515625 428.476562 849.460938 429.261719 849.351562 C 430.050781 849.242188 430.730469 849.019531 431.3125 848.683594 C 431.890625 848.347656 432.351562 847.863281 432.703125 847.230469 C 433.050781 846.601562 433.222656 845.761719 433.222656 844.71875 L 433.222656 829.0625 L 407.488281 829.0625 L 407.488281 844.71875 C 407.488281 845.761719 407.664062 846.601562 408.011719 847.230469 C 408.359375 847.863281 408.824219 848.347656 409.402344 848.683594 C 409.984375 849.019531 410.671875 849.242188 411.46875 849.351562 C 412.269531 849.460938 413.105469 849.515625 413.980469 849.515625 L 415.027344 849.515625 L 415.027344 852.320312 L 391.996094 852.320312 L 391.996094 849.515625 L 393 849.515625 C 393.902344 849.515625 394.746094 849.460938 395.53125 849.351562 C 396.316406 849.242188 397.007812 849.019531 397.597656 848.683594 C 398.191406 848.347656 398.65625 847.863281 398.988281 847.230469 C 399.324219 846.601562 399.492188 845.761719 399.492188 844.71875 L 399.492188 811.964844 C 399.492188 810.988281 399.316406 810.199219 398.96875 809.601562 C 398.621094 809.003906 398.152344 808.539062 397.558594 808.214844 C 396.96875 807.886719 396.277344 807.675781 395.492188 807.578125 C 394.707031 807.480469 393.875 807.429688 393 807.429688 L 391.996094 807.429688 L 391.996094 804.625 L 415.027344 804.625 L 415.027344 807.429688 L 413.980469 807.429688 C 413.105469 807.429688 412.269531 807.484375 411.46875 807.59375 C 410.671875 807.703125 409.984375 807.925781 409.402344 808.265625 C 408.824219 808.601562 408.359375 809.082031 408.011719 809.714844 C 407.664062 810.347656 407.488281 811.183594 407.488281 812.226562 L 407.488281 825.734375 L 433.222656 825.734375 L 433.222656 812.226562 C 433.222656 811.183594 433.050781 810.347656 432.703125 809.714844 C 432.351562 809.082031 431.890625 808.601562 431.3125 808.265625 C 430.730469 807.925781 430.050781 807.703125 429.261719 807.59375 C 428.476562 807.484375 427.632812 807.429688 426.730469 807.429688 L 425.6875 807.429688 L 425.6875 804.625 L 448.71875 804.625 L 448.71875 807.429688 L 447.714844 807.429688 C 446.8125 807.429688 445.96875 807.484375 445.183594 807.59375 C 444.398438 807.703125 443.707031 807.925781 443.113281 808.265625 C 442.523438 808.601562 442.058594 809.082031 441.722656 809.714844 C 441.390625 810.347656 441.222656 811.183594 441.222656 812.226562 L 441.222656 845.046875 C 441.222656 846.023438 441.394531 846.8125 441.742188 847.410156 C 442.09375 848.007812 442.5625 848.460938 443.152344 848.765625 C 443.746094 849.070312 444.4375 849.269531 445.222656 849.367188 C 446.007812 849.464844 446.835938 849.515625 447.714844 849.515625 L 448.71875 849.515625 L 448.71875 852.320312 Z M 425.6875 852.320312 " clip-rule="nonzero"/></clipPath><clipPath id="8b3f450c26"><path d="M 0.816406 0.4375 L 57.820312 0.4375 L 57.820312 48.320312 L 0.816406 48.320312 Z M 0.816406 0.4375 " clip-rule="nonzero"/></clipPath><clipPath id="68eedbdb7c"><path d="M 34.6875 48.320312 L 34.6875 45.515625 L 35.730469 45.515625 C 36.632812 45.515625 37.476562 45.460938 38.261719 45.351562 C 39.050781 45.242188 39.730469 45.019531 40.3125 44.683594 C 40.890625 44.347656 41.351562 43.863281 41.703125 43.230469 C 42.050781 42.601562 42.222656 41.761719 42.222656 40.71875 L 42.222656 25.0625 L 16.488281 25.0625 L 16.488281 40.71875 C 16.488281 41.761719 16.664062 42.601562 17.011719 43.230469 C 17.359375 43.863281 17.824219 44.347656 18.402344 44.683594 C 18.984375 45.019531 19.671875 45.242188 20.46875 45.351562 C 21.269531 45.460938 22.105469 45.515625 22.980469 45.515625 L 24.027344 45.515625 L 24.027344 48.320312 L 0.996094 48.320312 L 0.996094 45.515625 L 2 45.515625 C 2.902344 45.515625 3.746094 45.460938 4.53125 45.351562 C 5.316406 45.242188 6.007812 45.019531 6.597656 44.683594 C 7.191406 44.347656 7.65625 43.863281 7.988281 43.230469 C 8.324219 42.601562 8.492188 41.761719 8.492188 40.71875 L 8.492188 7.964844 C 8.492188 6.988281 8.316406 6.199219 7.96875 5.601562 C 7.621094 5.003906 7.152344 4.539062 6.558594 4.214844 C 5.96875 3.886719 5.277344 3.675781 4.492188 3.578125 C 3.707031 3.480469 2.875 3.429688 2 3.429688 L 0.996094 3.429688 L 0.996094 0.625 L 24.027344 0.625 L 24.027344 3.429688 L 22.980469 3.429688 C 22.105469 3.429688 21.269531 3.484375 20.46875 3.59375 C 19.671875 3.703125 18.984375 3.925781 18.402344 4.265625 C 17.824219 4.601562 17.359375 5.082031 17.011719 5.714844 C 16.664062 6.347656 16.488281 7.183594 16.488281 8.226562 L 16.488281 21.734375 L 42.222656 21.734375 L 42.222656 8.226562 C 42.222656 7.183594 42.050781 6.347656 41.703125 5.714844 C 41.351562 5.082031 40.890625 4.601562 40.3125 4.265625 C 39.730469 3.925781 39.050781 3.703125 38.261719 3.59375 C 37.476562 3.484375 36.632812 3.429688 35.730469 3.429688 L 34.6875 3.429688 L 34.6875 0.625 L 57.71875 0.625 L 57.71875 3.429688 L 56.714844 3.429688 C 55.8125 3.429688 54.96875 3.484375 54.183594 3.59375 C 53.398438 3.703125 52.707031 3.925781 52.113281 4.265625 C 51.523438 4.601562 51.058594 5.082031 50.722656 5.714844 C 50.390625 6.347656 50.222656 7.183594 50.222656 8.226562 L 50.222656 41.046875 C 50.222656 42.023438 50.394531 42.8125 50.742188 43.410156 C 51.09375 44.007812 51.5625 44.460938 52.152344 44.765625 C 52.746094 45.070312 53.4375 45.269531 54.222656 45.367188 C 55.007812 45.464844 55.835938 45.515625 56.714844 45.515625 L 57.71875 45.515625 L 57.71875 48.320312 Z M 34.6875 48.320312 " clip-rule="nonzero"/></clipPath><clipPath id="bf9e5fc8dc"><rect x="0" width="58" y="0" height="49"/></clipPath><clipPath id="c996c12001"><path d="M 462.375 804.535156 L 485.585938 804.535156 L 485.585938 852.394531 L 462.375 852.394531 Z M 462.375 804.535156 " clip-rule="nonzero"/></clipPath><clipPath id="8ab590fb1a"><path d="M 462.464844 852.320312 L 462.464844 849.515625 L 463.46875 849.515625 C 464.371094 849.515625 465.214844 849.460938 466 849.351562 C 466.785156 849.242188 467.476562 849.019531 468.066406 848.683594 C 468.660156 848.347656 469.125 847.863281 469.457031 847.230469 C 469.792969 846.601562 469.960938 845.761719 469.960938 844.71875 L 469.960938 812.226562 C 469.960938 811.183594 469.792969 810.347656 469.457031 809.714844 C 469.125 809.082031 468.660156 808.601562 468.066406 808.265625 C 467.476562 807.925781 466.785156 807.703125 466 807.59375 C 465.214844 807.484375 464.371094 807.429688 463.46875 807.429688 L 462.464844 807.429688 L 462.464844 804.625 L 485.496094 804.625 L 485.496094 807.429688 L 484.449219 807.429688 C 483.574219 807.429688 482.738281 807.484375 481.9375 807.59375 C 481.140625 807.703125 480.453125 807.925781 479.871094 808.265625 C 479.292969 808.601562 478.828125 809.082031 478.480469 809.714844 C 478.132812 810.347656 477.960938 811.183594 477.960938 812.226562 L 477.960938 844.71875 C 477.960938 845.761719 478.132812 846.601562 478.480469 847.230469 C 478.828125 847.863281 479.292969 848.347656 479.871094 848.683594 C 480.453125 849.019531 481.140625 849.242188 481.9375 849.351562 C 482.738281 849.460938 483.574219 849.515625 484.449219 849.515625 L 485.496094 849.515625 L 485.496094 852.320312 Z M 462.464844 852.320312 " clip-rule="nonzero"/></clipPath><clipPath id="63aa27618b"><path d="M 0.375 0.535156 L 23.585938 0.535156 L 23.585938 48.394531 L 0.375 48.394531 Z M 0.375 0.535156 " clip-rule="nonzero"/></clipPath><clipPath id="f0daf28039"><path d="M 0.464844 48.320312 L 0.464844 45.515625 L 1.46875 45.515625 C 2.371094 45.515625 3.214844 45.460938 4 45.351562 C 4.785156 45.242188 5.476562 45.019531 6.066406 44.683594 C 6.660156 44.347656 7.125 43.863281 7.457031 43.230469 C 7.792969 42.601562 7.960938 41.761719 7.960938 40.71875 L 7.960938 8.226562 C 7.960938 7.183594 7.792969 6.347656 7.457031 5.714844 C 7.125 5.082031 6.660156 4.601562 6.066406 4.265625 C 5.476562 3.925781 4.785156 3.703125 4 3.59375 C 3.214844 3.484375 2.371094 3.429688 1.46875 3.429688 L 0.464844 3.429688 L 0.464844 0.625 L 23.496094 0.625 L 23.496094 3.429688 L 22.449219 3.429688 C 21.574219 3.429688 20.738281 3.484375 19.9375 3.59375 C 19.140625 3.703125 18.453125 3.925781 17.871094 4.265625 C 17.292969 4.601562 16.828125 5.082031 16.480469 5.714844 C 16.132812 6.347656 15.960938 7.183594 15.960938 8.226562 L 15.960938 40.71875 C 15.960938 41.761719 16.132812 42.601562 16.480469 43.230469 C 16.828125 43.863281 17.292969 44.347656 17.871094 44.683594 C 18.453125 45.019531 19.140625 45.242188 19.9375 45.351562 C 20.738281 45.460938 21.574219 45.515625 22.449219 45.515625 L 23.496094 45.515625 L 23.496094 48.320312 Z M 0.464844 48.320312 " clip-rule="nonzero"/></clipPath><clipPath id="490eb6af9a"><rect x="0" width="24" y="0" height="49"/></clipPath><clipPath id="5e8ad5cbcb"><path d="M 499.304688 804.46875 L 539.566406 804.46875 L 539.566406 852.433594 L 499.304688 852.433594 Z M 499.304688 804.46875 " clip-rule="nonzero"/></clipPath><clipPath id="363459f362"><path d="M 514.800781 807.953125 L 514.800781 827.265625 L 533.886719 827.265625 L 533.886719 830.527344 L 514.800781 830.527344 L 514.800781 844.71875 C 514.800781 845.761719 514.972656 846.601562 515.320312 847.230469 C 515.667969 847.863281 516.132812 848.347656 516.710938 848.683594 C 517.292969 849.019531 517.980469 849.242188 518.777344 849.351562 C 519.578125 849.460938 520.414062 849.515625 521.289062 849.515625 L 523.917969 849.515625 L 523.917969 852.320312 L 499.304688 852.320312 L 499.304688 849.515625 L 500.308594 849.515625 C 501.183594 849.515625 502.015625 849.464844 502.800781 849.367188 C 503.585938 849.269531 504.277344 849.070312 504.871094 848.765625 C 505.460938 848.460938 505.933594 848.007812 506.277344 847.410156 C 506.628906 846.8125 506.800781 846.023438 506.800781 845.046875 L 506.800781 811.964844 C 506.800781 810.988281 506.628906 810.199219 506.277344 809.601562 C 505.933594 809.003906 505.460938 808.539062 504.871094 808.214844 C 504.277344 807.886719 503.585938 807.675781 502.800781 807.578125 C 502.015625 807.480469 501.183594 807.429688 500.308594 807.429688 L 499.304688 807.429688 L 499.304688 804.625 L 539.179688 804.625 L 539.566406 816.304688 L 535.472656 816.304688 L 535.085938 813.433594 C 534.980469 812.671875 534.773438 811.960938 534.464844 811.296875 C 534.15625 810.632812 533.714844 810.058594 533.132812 809.566406 C 532.554688 809.078125 531.828125 808.6875 530.949219 808.394531 C 530.074219 808.101562 529.019531 807.953125 527.78125 807.953125 Z M 514.800781 807.953125 " clip-rule="nonzero"/></clipPath><clipPath id="078d9d708e"><path d="M 0.304688 0.46875 L 40.566406 0.46875 L 40.566406 48.410156 L 0.304688 48.410156 Z M 0.304688 0.46875 " clip-rule="nonzero"/></clipPath><clipPath id="7113a4e72c"><path d="M 15.800781 3.953125 L 15.800781 23.265625 L 34.886719 23.265625 L 34.886719 26.527344 L 15.800781 26.527344 L 15.800781 40.71875 C 15.800781 41.761719 15.972656 42.601562 16.320312 43.230469 C 16.667969 43.863281 17.132812 44.347656 17.710938 44.683594 C 18.292969 45.019531 18.980469 45.242188 19.777344 45.351562 C 20.578125 45.460938 21.414062 45.515625 22.289062 45.515625 L 24.917969 45.515625 L 24.917969 48.320312 L 0.304688 48.320312 L 0.304688 45.515625 L 1.308594 45.515625 C 2.183594 45.515625 3.015625 45.464844 3.800781 45.367188 C 4.585938 45.269531 5.277344 45.070312 5.871094 44.765625 C 6.460938 44.460938 6.933594 44.007812 7.277344 43.410156 C 7.628906 42.8125 7.800781 42.023438 7.800781 41.046875 L 7.800781 7.964844 C 7.800781 6.988281 7.628906 6.199219 7.277344 5.601562 C 6.933594 5.003906 6.460938 4.539062 5.871094 4.214844 C 5.277344 3.886719 4.585938 3.675781 3.800781 3.578125 C 3.015625 3.480469 2.183594 3.429688 1.308594 3.429688 L 0.304688 3.429688 L 0.304688 0.625 L 40.179688 0.625 L 40.566406 12.304688 L 36.472656 12.304688 L 36.085938 9.433594 C 35.980469 8.671875 35.773438 7.960938 35.464844 7.296875 C 35.15625 6.632812 34.714844 6.058594 34.132812 5.566406 C 33.554688 5.078125 32.828125 4.6875 31.949219 4.394531 C 31.074219 4.101562 30.019531 3.953125 28.78125 3.953125 Z M 15.800781 3.953125 " clip-rule="nonzero"/></clipPath><clipPath id="88e326b415"><rect x="0" width="41" y="0" height="49"/></clipPath><clipPath id="4a65dd6cb7"><path d="M 545.296875 804.625 L 600.78125 804.625 L 600.78125 852.613281 L 545.296875 852.613281 Z M 545.296875 804.625 " clip-rule="nonzero"/></clipPath><clipPath id="1351da0cf9"><path d="M 611.777344 804.625 L 661.265625 804.625 L 661.265625 852.613281 L 611.777344 852.613281 Z M 611.777344 804.625 " clip-rule="nonzero"/></clipPath><clipPath id="5311a97119"><path d="M 668.710938 804.636719 L 723.132812 804.636719 L 723.132812 852.84375 L 668.710938 852.84375 Z M 668.710938 804.636719 " clip-rule="nonzero"/></clipPath><clipPath id="67f0d3f5ea"><path d="M 696.253906 852.84375 C 693.144531 852.84375 690.359375 852.566406 687.890625 852.015625 C 685.425781 851.460938 683.339844 850.582031 681.628906 849.378906 C 679.921875 848.175781 678.621094 846.625 677.71875 844.726562 C 676.820312 842.832031 676.371094 840.527344 676.371094 837.816406 L 676.371094 811.953125 C 676.371094 810.980469 676.199219 810.191406 675.851562 809.597656 C 675.503906 809 675.035156 808.539062 674.445312 808.214844 C 673.855469 807.890625 673.167969 807.679688 672.382812 807.578125 C 671.601562 807.480469 670.773438 807.433594 669.898438 807.433594 L 668.898438 807.433594 L 668.898438 804.636719 L 691.859375 804.636719 L 691.859375 807.433594 L 690.820312 807.433594 C 689.945312 807.433594 689.113281 807.488281 688.316406 807.59375 C 687.519531 807.703125 686.832031 807.925781 686.253906 808.265625 C 685.675781 808.597656 685.214844 809.082031 684.867188 809.710938 C 684.519531 810.339844 684.347656 811.171875 684.347656 812.214844 L 684.347656 838.207031 C 684.347656 840.136719 684.675781 841.777344 685.328125 843.132812 C 685.984375 844.488281 686.894531 845.589844 688.0625 846.4375 C 689.234375 847.28125 690.621094 847.898438 692.226562 848.289062 C 693.832031 848.679688 695.597656 848.875 697.523438 848.875 C 699.808594 848.875 701.78125 848.613281 703.4375 848.09375 C 705.09375 847.574219 706.46875 846.851562 707.558594 845.929688 C 708.652344 845.011719 709.460938 843.914062 709.984375 842.644531 C 710.515625 841.375 710.777344 839.984375 710.777344 838.464844 L 710.777344 811.953125 C 710.777344 810.980469 710.605469 810.191406 710.257812 809.597656 C 709.910156 809 709.441406 808.539062 708.851562 808.214844 C 708.257812 807.890625 707.574219 807.679688 706.789062 807.578125 C 706.007812 807.480469 705.179688 807.433594 704.304688 807.433594 L 703.300781 807.433594 L 703.300781 804.636719 L 723.105469 804.636719 L 723.105469 807.433594 L 722.066406 807.433594 C 721.191406 807.433594 720.355469 807.488281 719.5625 807.59375 C 718.765625 807.703125 718.078125 807.925781 717.5 808.265625 C 716.921875 808.597656 716.460938 809.082031 716.113281 809.710938 C 715.765625 810.339844 715.59375 811.171875 715.59375 812.214844 L 715.59375 838.59375 C 715.59375 840.808594 715.175781 842.796875 714.339844 844.566406 C 713.503906 846.332031 712.273438 847.828125 710.644531 849.054688 C 709.011719 850.28125 706.988281 851.21875 704.574219 851.867188 C 702.160156 852.519531 699.386719 852.84375 696.253906 852.84375 Z M 696.253906 852.84375 " clip-rule="nonzero"/></clipPath><clipPath id="dcbf9b6ba3"><path d="M 0.710938 0.636719 L 55.132812 0.636719 L 55.132812 48.84375 L 0.710938 48.84375 Z M 0.710938 0.636719 " clip-rule="nonzero"/></clipPath><clipPath id="daf46e943e"><path d="M 28.253906 48.84375 C 25.144531 48.84375 22.359375 48.566406 19.890625 48.015625 C 17.425781 47.460938 15.339844 46.582031 13.628906 45.378906 C 11.921875 44.175781 10.621094 42.625 9.71875 40.726562 C 8.820312 38.832031 8.371094 36.527344 8.371094 33.816406 L 8.371094 7.953125 C 8.371094 6.980469 8.199219 6.191406 7.851562 5.597656 C 7.503906 5 7.035156 4.539062 6.445312 4.214844 C 5.855469 3.890625 5.167969 3.679688 4.382812 3.578125 C 3.601562 3.480469 2.773438 3.433594 1.898438 3.433594 L 0.898438 3.433594 L 0.898438 0.636719 L 23.859375 0.636719 L 23.859375 3.433594 L 22.820312 3.433594 C 21.945312 3.433594 21.113281 3.488281 20.316406 3.59375 C 19.519531 3.703125 18.832031 3.925781 18.253906 4.265625 C 17.675781 4.597656 17.214844 5.082031 16.867188 5.710938 C 16.519531 6.339844 16.347656 7.171875 16.347656 8.214844 L 16.347656 34.207031 C 16.347656 36.136719 16.675781 37.777344 17.328125 39.132812 C 17.984375 40.488281 18.894531 41.589844 20.0625 42.4375 C 21.234375 43.28125 22.621094 43.898438 24.226562 44.289062 C 25.832031 44.679688 27.597656 44.875 29.523438 44.875 C 31.808594 44.875 33.78125 44.613281 35.4375 44.09375 C 37.09375 43.574219 38.46875 42.851562 39.558594 41.929688 C 40.652344 41.011719 41.460938 39.914062 41.984375 38.644531 C 42.515625 37.375 42.777344 35.984375 42.777344 34.464844 L 42.777344 7.953125 C 42.777344 6.980469 42.605469 6.191406 42.257812 5.597656 C 41.910156 5 41.441406 4.539062 40.851562 4.214844 C 40.257812 3.890625 39.574219 3.679688 38.789062 3.578125 C 38.007812 3.480469 37.179688 3.433594 36.304688 3.433594 L 35.300781 3.433594 L 35.300781 0.636719 L 55.105469 0.636719 L 55.105469 3.433594 L 54.066406 3.433594 C 53.191406 3.433594 52.355469 3.488281 51.5625 3.59375 C 50.765625 3.703125 50.078125 3.925781 49.5 4.265625 C 48.921875 4.597656 48.460938 5.082031 48.113281 5.710938 C 47.765625 6.339844 47.59375 7.171875 47.59375 8.214844 L 47.59375 34.59375 C 47.59375 36.808594 47.175781 38.796875 46.339844 40.566406 C 45.503906 42.332031 44.273438 43.828125 42.644531 45.054688 C 41.011719 46.28125 38.988281 47.21875 36.574219 47.867188 C 34.160156 48.519531 31.386719 48.84375 28.253906 48.84375 Z M 28.253906 48.84375 " clip-rule="nonzero"/></clipPath><clipPath id="397ab5e696"><rect x="0" width="56" y="0" height="49"/></clipPath><clipPath id="91335722f7"><path d="M 315.785156 888.753906 L 360.574219 888.753906 L 360.574219 914.175781 L 315.785156 914.175781 Z M 315.785156 888.753906 " clip-rule="nonzero"/></clipPath><clipPath id="cd4bbaaebc"><path d="M 358.417969 913.339844 C 358.601562 913.621094 359.066406 913.757812 359.808594 913.757812 L 360.488281 913.757812 L 360.488281 914.175781 L 351.277344 914.175781 L 351.277344 913.757812 L 351.957031 913.757812 C 352.65625 913.757812 353.121094 913.601562 353.347656 913.289062 C 353.574219 912.976562 353.6875 912.402344 353.6875 911.566406 L 353.6875 897.574219 C 353.6875 895.660156 353.191406 894.171875 352.203125 893.109375 C 351.214844 892.050781 349.769531 891.519531 347.875 891.519531 L 348.121094 891.519531 C 346.019531 891.519531 344.289062 892.078125 342.929688 893.191406 C 341.566406 894.304688 340.742188 895.75 340.457031 897.523438 L 340.457031 911.722656 C 340.457031 912.523438 340.558594 913.0625 340.765625 913.339844 C 340.96875 913.621094 341.464844 913.757812 342.25 913.757812 L 342.988281 913.757812 L 342.988281 914.175781 L 333.589844 914.175781 L 333.589844 913.757812 L 334.269531 913.757812 C 334.972656 913.757812 335.4375 913.601562 335.664062 913.289062 C 335.890625 912.976562 336.003906 912.402344 336.003906 911.566406 L 336.003906 897.574219 C 336.003906 895.660156 335.546875 894.171875 334.640625 893.109375 C 333.734375 892.050781 332.355469 891.519531 330.5 891.519531 L 330.746094 891.519531 C 328.519531 891.519531 326.726562 892.078125 325.367188 893.191406 C 324.007812 894.304688 323.121094 895.75 322.707031 897.523438 L 322.707031 911.722656 C 322.707031 912.523438 322.8125 913.0625 323.019531 913.339844 C 323.222656 913.621094 323.699219 913.757812 324.441406 913.757812 L 325.121094 913.757812 L 325.121094 914.175781 L 315.785156 914.175781 L 315.785156 913.757812 L 316.527344 913.757812 C 317.183594 913.757812 317.636719 913.601562 317.886719 913.289062 C 318.132812 912.976562 318.257812 912.402344 318.257812 911.566406 L 318.257812 892.511719 C 318.257812 891.988281 318.214844 891.589844 318.132812 891.3125 C 318.050781 891.03125 317.84375 890.894531 317.515625 890.894531 L 317.023438 890.945312 L 316.03125 890.789062 L 316.03125 890.527344 L 321.347656 889.222656 L 322.523438 889.015625 L 322.523438 893.609375 C 323.84375 892.007812 325.285156 890.796875 326.851562 889.980469 C 328.417969 889.164062 330.253906 888.753906 332.355469 888.753906 C 334.128906 888.753906 335.695312 889.222656 337.054688 890.164062 C 338.414062 891.101562 339.257812 892.320312 339.589844 893.816406 C 339.960938 893.15625 340.464844 892.519531 341.105469 891.910156 C 341.742188 891.304688 342.496094 890.761719 343.363281 890.292969 C 344.226562 889.824219 345.195312 889.449219 346.269531 889.167969 C 347.339844 888.890625 348.492188 888.753906 349.730469 888.753906 C 352.449219 888.753906 354.53125 889.527344 355.976562 891.078125 C 357.417969 892.625 358.140625 894.757812 358.140625 897.472656 L 358.140625 911.722656 C 358.140625 912.523438 358.230469 913.0625 358.417969 913.339844 Z M 358.417969 913.339844 " clip-rule="nonzero"/></clipPath><clipPath id="c401e11705"><path d="M 0.785156 0.753906 L 45.574219 0.753906 L 45.574219 26.175781 L 0.785156 26.175781 Z M 0.785156 0.753906 " clip-rule="nonzero"/></clipPath><clipPath id="7ed6c134b2"><path d="M 43.417969 25.339844 C 43.601562 25.621094 44.066406 25.757812 44.808594 25.757812 L 45.488281 25.757812 L 45.488281 26.175781 L 36.277344 26.175781 L 36.277344 25.757812 L 36.957031 25.757812 C 37.65625 25.757812 38.121094 25.601562 38.347656 25.289062 C 38.574219 24.976562 38.6875 24.402344 38.6875 23.566406 L 38.6875 9.574219 C 38.6875 7.660156 38.191406 6.171875 37.203125 5.109375 C 36.214844 4.050781 34.769531 3.519531 32.875 3.519531 L 33.121094 3.519531 C 31.019531 3.519531 29.289062 4.078125 27.929688 5.191406 C 26.566406 6.304688 25.742188 7.75 25.457031 9.523438 L 25.457031 23.722656 C 25.457031 24.523438 25.558594 25.0625 25.765625 25.339844 C 25.96875 25.621094 26.464844 25.757812 27.25 25.757812 L 27.988281 25.757812 L 27.988281 26.175781 L 18.589844 26.175781 L 18.589844 25.757812 L 19.269531 25.757812 C 19.972656 25.757812 20.4375 25.601562 20.664062 25.289062 C 20.890625 24.976562 21.003906 24.402344 21.003906 23.566406 L 21.003906 9.574219 C 21.003906 7.660156 20.546875 6.171875 19.640625 5.109375 C 18.734375 4.050781 17.355469 3.519531 15.5 3.519531 L 15.746094 3.519531 C 13.519531 3.519531 11.726562 4.078125 10.367188 5.191406 C 9.007812 6.304688 8.121094 7.75 7.707031 9.523438 L 7.707031 23.722656 C 7.707031 24.523438 7.8125 25.0625 8.019531 25.339844 C 8.222656 25.621094 8.699219 25.757812 9.441406 25.757812 L 10.121094 25.757812 L 10.121094 26.175781 L 0.785156 26.175781 L 0.785156 25.757812 L 1.527344 25.757812 C 2.183594 25.757812 2.636719 25.601562 2.886719 25.289062 C 3.132812 24.976562 3.257812 24.402344 3.257812 23.566406 L 3.257812 4.511719 C 3.257812 3.988281 3.214844 3.589844 3.132812 3.3125 C 3.050781 3.03125 2.84375 2.894531 2.515625 2.894531 L 2.023438 2.945312 L 1.03125 2.789062 L 1.03125 2.527344 L 6.347656 1.222656 L 7.523438 1.015625 L 7.523438 5.609375 C 8.84375 4.007812 10.285156 2.796875 11.851562 1.980469 C 13.417969 1.164062 15.253906 0.753906 17.355469 0.753906 C 19.128906 0.753906 20.695312 1.222656 22.054688 2.164062 C 23.414062 3.101562 24.257812 4.320312 24.589844 5.816406 C 24.960938 5.15625 25.464844 4.519531 26.105469 3.910156 C 26.742188 3.304688 27.496094 2.761719 28.363281 2.292969 C 29.226562 1.824219 30.195312 1.449219 31.269531 1.167969 C 32.339844 0.890625 33.492188 0.753906 34.730469 0.753906 C 37.449219 0.753906 39.53125 1.527344 40.976562 3.078125 C 42.417969 4.625 43.140625 6.757812 43.140625 9.472656 L 43.140625 23.722656 C 43.140625 24.523438 43.230469 25.0625 43.417969 25.339844 Z M 43.417969 25.339844 " clip-rule="nonzero"/></clipPath><clipPath id="901535ca07"><rect x="0" width="46" y="0" height="27"/></clipPath><clipPath id="475d1278f6"><path d="M 377.101562 888.722656 L 401.84375 888.722656 L 401.84375 914.964844 L 377.101562 914.964844 Z M 377.101562 888.722656 " clip-rule="nonzero"/></clipPath><clipPath id="0ced82ceb4"><path d="M 420.253906 876.949219 L 429.308594 876.949219 L 429.308594 914.191406 L 420.253906 914.191406 Z M 420.253906 876.949219 " clip-rule="nonzero"/></clipPath><clipPath id="63221579ae"><path d="M 420.253906 878.394531 L 426.308594 876.984375 L 427.480469 877.039062 L 427.480469 911.722656 C 427.480469 912.523438 427.554688 913.0625 427.699219 913.339844 C 427.839844 913.621094 428.203125 913.757812 428.78125 913.757812 L 429.273438 913.757812 L 429.273438 914.175781 L 420.316406 914.175781 L 420.316406 913.757812 L 421.117188 913.757812 C 421.859375 913.757812 422.363281 913.601562 422.632812 913.289062 C 422.898438 912.976562 423.035156 912.402344 423.035156 911.566406 L 423.035156 880.375 C 423.035156 879.820312 422.992188 879.410156 422.910156 879.148438 C 422.828125 878.890625 422.558594 878.761719 422.105469 878.761719 L 421.488281 878.8125 L 420.253906 878.65625 Z M 420.253906 878.394531 " clip-rule="nonzero"/></clipPath><clipPath id="2717614ee0"><path d="M 0.253906 0.949219 L 9.308594 0.949219 L 9.308594 38.191406 L 0.253906 38.191406 Z M 0.253906 0.949219 " clip-rule="nonzero"/></clipPath><clipPath id="26c0268ac8"><path d="M 0.253906 2.394531 L 6.308594 0.984375 L 7.480469 1.039062 L 7.480469 35.722656 C 7.480469 36.523438 7.554688 37.0625 7.699219 37.339844 C 7.839844 37.621094 8.203125 37.757812 8.78125 37.757812 L 9.273438 37.757812 L 9.273438 38.175781 L 0.316406 38.175781 L 0.316406 37.757812 L 1.117188 37.757812 C 1.859375 37.757812 2.363281 37.601562 2.632812 37.289062 C 2.898438 36.976562 3.035156 36.402344 3.035156 35.566406 L 3.035156 4.375 C 3.035156 3.820312 2.992188 3.410156 2.910156 3.148438 C 2.828125 2.890625 2.558594 2.761719 2.105469 2.761719 L 1.488281 2.8125 L 0.253906 2.65625 Z M 0.253906 2.394531 " clip-rule="nonzero"/></clipPath><clipPath id="5f0779323e"><rect x="0" width="10" y="0" height="39"/></clipPath><clipPath id="86e6ddcaea"><path d="M 447.429688 876.929688 L 475 876.929688 L 475 914.421875 L 447.429688 914.421875 Z M 447.429688 876.929688 " clip-rule="nonzero"/></clipPath><clipPath id="7bd9b55cd8"><path d="M 492.46875 877.457031 L 501.464844 877.457031 L 501.464844 914.195312 L 492.46875 914.195312 Z M 492.46875 877.457031 " clip-rule="nonzero"/></clipPath><clipPath id="fa74dbbf7a"><path d="M 518.558594 889.300781 L 546.136719 889.300781 L 546.136719 914.613281 L 518.558594 914.613281 Z M 518.558594 889.300781 " clip-rule="nonzero"/></clipPath><clipPath id="9e17abd57b"><path d="M 533.984375 914.148438 C 533.445312 914.390625 532.949219 914.511719 532.496094 914.511719 C 532.082031 914.511719 531.609375 914.390625 531.070312 914.148438 L 520.789062 891.339844 C 520.457031 890.644531 520.105469 890.199219 519.734375 890.007812 C 519.363281 889.816406 518.96875 889.71875 518.558594 889.71875 L 518.558594 889.300781 L 527.042969 889.300781 L 527.042969 889.71875 C 526.21875 889.753906 525.703125 889.929688 525.496094 890.242188 L 525.433594 890.503906 C 525.433594 890.816406 525.515625 891.132812 525.683594 891.445312 L 533.300781 909.4375 L 540.675781 891.96875 C 540.921875 891.410156 541.046875 890.976562 541.046875 890.660156 C 541.046875 890.382812 540.941406 890.1875 540.738281 890.085938 C 540.324219 889.84375 539.890625 889.71875 539.4375 889.71875 L 539.4375 889.300781 L 546.066406 889.300781 L 546.066406 889.71875 C 545.570312 889.789062 545.175781 889.9375 544.890625 890.164062 C 544.597656 890.390625 544.246094 890.992188 543.835938 891.96875 Z M 533.984375 914.148438 " clip-rule="nonzero"/></clipPath><clipPath id="45a0fb95d6"><path d="M 0.558594 0.300781 L 28.09375 0.300781 L 28.09375 25.550781 L 0.558594 25.550781 Z M 0.558594 0.300781 " clip-rule="nonzero"/></clipPath><clipPath id="922927f92d"><path d="M 15.984375 25.148438 C 15.445312 25.390625 14.949219 25.511719 14.496094 25.511719 C 14.082031 25.511719 13.609375 25.390625 13.070312 25.148438 L 2.789062 2.339844 C 2.457031 1.644531 2.105469 1.199219 1.734375 1.007812 C 1.363281 0.816406 0.96875 0.71875 0.558594 0.71875 L 0.558594 0.300781 L 9.042969 0.300781 L 9.042969 0.71875 C 8.21875 0.753906 7.703125 0.929688 7.496094 1.242188 L 7.433594 1.503906 C 7.433594 1.816406 7.515625 2.132812 7.683594 2.445312 L 15.300781 20.4375 L 22.675781 2.96875 C 22.921875 2.410156 23.046875 1.976562 23.046875 1.660156 C 23.046875 1.382812 22.941406 1.1875 22.738281 1.085938 C 22.324219 0.84375 21.890625 0.71875 21.4375 0.71875 L 21.4375 0.300781 L 28.066406 0.300781 L 28.066406 0.71875 C 27.570312 0.789062 27.175781 0.9375 26.890625 1.164062 C 26.597656 1.390625 26.246094 1.992188 25.835938 2.96875 Z M 15.984375 25.148438 " clip-rule="nonzero"/></clipPath><clipPath id="39b8958910"><rect x="0" width="29" y="0" height="26"/></clipPath><clipPath id="1d0c9f96ba"><path d="M 561.222656 888.699219 L 585.964844 888.699219 L 585.964844 914.941406 L 561.222656 914.941406 Z M 561.222656 888.699219 " clip-rule="nonzero"/></clipPath><clipPath id="7f35a0bcac"><path d="M 604.832031 888.488281 L 623.605469 888.488281 L 623.605469 914.710938 L 604.832031 914.710938 Z M 604.832031 888.488281 " clip-rule="nonzero"/></clipPath><clipPath id="b2c10b3584"><path d="M 620.753906 912.71875 C 618.863281 914.039062 616.496094 914.699219 613.660156 914.699219 C 612.175781 914.699219 610.703125 914.558594 609.246094 914.28125 C 607.785156 914.003906 606.703125 913.796875 606.003906 913.65625 C 605.675781 913.65625 605.429688 913.761719 605.265625 913.96875 L 604.832031 913.96875 L 604.832031 908.238281 L 605.511719 907.976562 C 605.921875 909.472656 606.847656 910.660156 608.289062 911.546875 C 609.726562 912.429688 611.4375 912.875 613.410156 912.875 C 615.054688 912.875 616.457031 912.484375 617.605469 911.703125 C 618.757812 910.921875 619.335938 909.90625 619.335938 908.652344 C 619.335938 907.960938 619.160156 907.351562 618.8125 906.832031 C 618.460938 906.308594 617.988281 905.824219 617.390625 905.371094 C 616.792969 904.921875 616.085938 904.511719 615.261719 904.148438 C 614.4375 903.78125 613.574219 903.410156 612.671875 903.027344 C 611.105469 902.402344 609.441406 901.515625 607.671875 900.371094 C 605.859375 899.152344 604.957031 897.519531 604.957031 895.472656 C 604.957031 894.429688 605.191406 893.492188 605.664062 892.65625 C 606.136719 891.824219 606.773438 891.121094 607.578125 890.546875 C 608.382812 889.972656 609.335938 889.53125 610.449219 889.21875 C 611.558594 888.90625 612.773438 888.75 614.089844 888.75 C 615.363281 888.75 616.683594 888.921875 618.039062 889.269531 C 618.738281 889.445312 619.316406 889.574219 619.765625 889.660156 C 620.21875 889.746094 620.546875 889.808594 620.753906 889.84375 L 621.25 888.488281 L 621.558594 888.488281 L 621.742188 894.847656 L 621.125 894.792969 C 620.507812 893.578125 619.589844 892.578125 618.378906 891.796875 C 617.164062 891.015625 615.777344 890.625 614.214844 890.625 C 612.363281 890.625 610.972656 890.980469 610.046875 891.695312 C 609.121094 892.40625 608.65625 893.300781 608.65625 894.378906 C 608.65625 895.523438 609.203125 896.460938 610.292969 897.191406 C 611.382812 897.917969 613.039062 898.753906 615.261719 899.691406 C 616.578125 900.246094 617.75 900.796875 618.78125 901.332031 C 619.808594 901.871094 620.671875 902.445312 621.371094 903.054688 C 622.070312 903.660156 622.605469 904.339844 622.976562 905.085938 C 623.347656 905.832031 623.53125 906.675781 623.53125 907.613281 C 623.53125 909.664062 622.605469 911.363281 620.753906 912.71875 Z M 620.753906 912.71875 " clip-rule="nonzero"/></clipPath><clipPath id="9d3d747aea"><path d="M 0.832031 0.488281 L 19.59375 0.488281 L 19.59375 26.710938 L 0.832031 26.710938 Z M 0.832031 0.488281 " clip-rule="nonzero"/></clipPath><clipPath id="59b29b31d3"><path d="M 16.753906 24.71875 C 14.863281 26.039062 12.496094 26.699219 9.660156 26.699219 C 8.175781 26.699219 6.703125 26.558594 5.246094 26.28125 C 3.785156 26.003906 2.703125 25.796875 2.003906 25.65625 C 1.675781 25.65625 1.429688 25.761719 1.265625 25.96875 L 0.832031 25.96875 L 0.832031 20.238281 L 1.511719 19.976562 C 1.921875 21.472656 2.847656 22.660156 4.289062 23.546875 C 5.726562 24.429688 7.4375 24.875 9.410156 24.875 C 11.054688 24.875 12.457031 24.484375 13.605469 23.703125 C 14.757812 22.921875 15.335938 21.90625 15.335938 20.652344 C 15.335938 19.960938 15.160156 19.351562 14.8125 18.832031 C 14.460938 18.308594 13.988281 17.824219 13.390625 17.371094 C 12.792969 16.921875 12.085938 16.511719 11.261719 16.148438 C 10.4375 15.78125 9.574219 15.410156 8.671875 15.027344 C 7.105469 14.402344 5.441406 13.515625 3.671875 12.371094 C 1.859375 11.152344 0.957031 9.519531 0.957031 7.472656 C 0.957031 6.429688 1.191406 5.492188 1.664062 4.65625 C 2.136719 3.824219 2.773438 3.121094 3.578125 2.546875 C 4.382812 1.972656 5.335938 1.53125 6.449219 1.21875 C 7.558594 0.90625 8.773438 0.75 10.089844 0.75 C 11.363281 0.75 12.683594 0.921875 14.039062 1.269531 C 14.738281 1.445312 15.316406 1.574219 15.765625 1.660156 C 16.21875 1.746094 16.546875 1.808594 16.753906 1.84375 L 17.25 0.488281 L 17.558594 0.488281 L 17.742188 6.847656 L 17.125 6.792969 C 16.507812 5.578125 15.589844 4.578125 14.378906 3.796875 C 13.164062 3.015625 11.777344 2.625 10.214844 2.625 C 8.363281 2.625 6.972656 2.980469 6.046875 3.695312 C 5.121094 4.40625 4.65625 5.300781 4.65625 6.378906 C 4.65625 7.523438 5.203125 8.460938 6.292969 9.191406 C 7.382812 9.917969 9.039062 10.753906 11.261719 11.691406 C 12.578125 12.246094 13.75 12.796875 14.78125 13.332031 C 15.808594 13.871094 16.671875 14.445312 17.371094 15.054688 C 18.070312 15.660156 18.605469 16.339844 18.976562 17.085938 C 19.347656 17.832031 19.53125 18.675781 19.53125 19.613281 C 19.53125 21.664062 18.605469 23.363281 16.753906 24.71875 Z M 16.753906 24.71875 " clip-rule="nonzero"/></clipPath><clipPath id="053a39389e"><rect x="0" width="20" y="0" height="27"/></clipPath></defs><g clip-path="url(#59ee32d636)"></g><g clip-path="url(#c457da7da7)"><g clip-path="url(#e475a4fd67)"><g transform="matrix(1, 0, 0, 1, 316, 252)"><g clip-path="url(#117d75104c)"><g clip-path="url(#2dbbd66714)"><g clip-path="url(#af271fcd43)"><path fill="#048ba7" d="M 0.925781 0.230469 L 318.550781 0.230469 L 318.550781 475.824219 L 0.925781 475.824219 Z M 0.925781 0.230469 " fill-opacity="1" fill-rule="nonzero"/></g></g></g></g></g></g><g clip-path="url(#d8ca2d56e0)"><g clip-path="url(#806f37d265)"><g transform="matrix(1, 0, 0, 1, 222, 804)"><g clip-path="url(#c55cd23e5e)"><g clip-path="url(#248bb10aff)"><g clip-path="url(#aa8bd4f616)"><path fill="#048ba7" d="M 0.296875 0.625 L 40.558594 0.625 L 40.558594 48.277344 L 0.296875 48.277344 Z M 0.296875 0.625 " fill-opacity="1" fill-rule="nonzero"/></g></g></g></g></g></g><g clip-path="url(#2d0b219ddd)"><g clip-path="url(#9989a7990d)"><g transform="matrix(1, 0, 0, 1, 275, 804)"><g clip-path="url(#46fc325516)"><g clip-path="url(#00eb1b251f)"><g clip-path="url(#bd7aa40af9)"><path fill="#048ba7" d="M 0.015625 0.636719 L 54.25 0.636719 L 54.25 48.84375 L 0.015625 48.84375 Z M 0.015625 0.636719 " fill-opacity="1" fill-rule="nonzero"/></g></g></g></g></g></g><g clip-path="url(#4c52e43d3f)"><g clip-path="url(#780e370f08)"><g transform="matrix(1, 0, 0, 1, 341, 803)"><g clip-path="url(#61cf0722e8)"><g clip-path="url(#ae68b7bb93)"><g clip-path="url(#6b5fa3f2c8)"><path fill="#048ba7" d="M 0.960938 0.976562 L 36.144531 0.976562 L 36.144531 49.90625 L 0.960938 49.90625 Z M 0.960938 0.976562 " fill-opacity="1" fill-rule="nonzero"/></g></g></g></g></g></g><g clip-path="url(#80f461c708)"><g clip-path="url(#f64aee8350)"><g transform="matrix(1, 0, 0, 1, 391, 804)"><g clip-path="url(#bf9e5fc8dc)"><g clip-path="url(#8b3f450c26)"><g clip-path="url(#68eedbdb7c)"><path fill="#048ba7" d="M 0.996094 0.625 L 57.632812 0.625 L 57.632812 48.320312 L 0.996094 48.320312 Z M 0.996094 0.625 " fill-opacity="1" fill-rule="nonzero"/></g></g></g></g></g></g><g clip-path="url(#c996c12001)"><g clip-path="url(#8ab590fb1a)"><g transform="matrix(1, 0, 0, 1, 462, 804)"><g clip-path="url(#490eb6af9a)"><g clip-path="url(#63aa27618b)"><g clip-path="url(#f0daf28039)"><path fill="#048ba7" d="M 0.464844 0.625 L 23.496094 0.625 L 23.496094 48.304688 L 0.464844 48.304688 Z M 0.464844 0.625 " fill-opacity="1" fill-rule="nonzero"/></g></g></g></g></g></g><g clip-path="url(#5e8ad5cbcb)"><g clip-path="url(#363459f362)"><g transform="matrix(1, 0, 0, 1, 499, 804)"><g clip-path="url(#88e326b415)"><g clip-path="url(#078d9d708e)"><g clip-path="url(#7113a4e72c)"><path fill="#048ba7" d="M 0.304688 0.625 L 40.566406 0.625 L 40.566406 48.277344 L 0.304688 48.277344 Z M 0.304688 0.625 " fill-opacity="1" fill-rule="nonzero"/></g></g></g></g></g></g><g clip-path="url(#4a65dd6cb7)"><path fill="#048ba7" d="M 575.550781 821.382812 C 574.730469 819.398438 573.980469 817.539062 573.304688 815.804688 C 572.625 814.070312 572.070312 812.394531 571.632812 810.78125 C 571.453125 811.585938 571.246094 812.367188 571 813.121094 C 570.757812 813.875 570.496094 814.640625 570.214844 815.425781 C 569.933594 816.210938 569.613281 817.035156 569.253906 817.898438 C 568.894531 818.761719 568.484375 819.714844 568.027344 820.761719 L 562.6875 833.097656 L 580.425781 833.097656 Z M 561.191406 836.46875 L 558.199219 843.503906 C 557.964844 844.027344 557.789062 844.546875 557.660156 845.058594 C 557.53125 845.570312 557.46875 846.011719 557.46875 846.382812 C 557.46875 847.519531 557.894531 848.347656 558.753906 848.871094 C 559.613281 849.394531 560.921875 849.65625 562.6875 849.65625 L 564.492188 849.65625 L 564.492188 852.472656 L 545.296875 852.472656 L 545.296875 849.65625 L 546.792969 849.65625 C 547.5625 849.65625 548.214844 849.585938 548.753906 849.445312 C 549.289062 849.300781 549.773438 849.035156 550.210938 848.640625 C 550.644531 848.25 551.0625 847.714844 551.457031 847.039062 C 551.855469 846.363281 552.296875 845.492188 552.78125 844.421875 L 570.214844 804.628906 L 576.359375 804.628906 L 594.132812 846.089844 C 594.4375 846.789062 594.753906 847.367188 595.074219 847.824219 C 595.394531 848.28125 595.769531 848.648438 596.203125 848.921875 C 596.640625 849.195312 597.140625 849.386719 597.703125 849.492188 C 598.265625 849.601562 598.929688 849.65625 599.699219 849.65625 L 600.734375 849.65625 L 600.734375 852.472656 L 579.121094 852.472656 L 579.121094 849.65625 L 580.925781 849.65625 C 584.074219 849.65625 585.648438 848.585938 585.648438 846.449219 C 585.648438 846.078125 585.589844 845.695312 585.476562 845.304688 C 585.359375 844.910156 585.199219 844.464844 584.996094 843.960938 L 581.847656 836.46875 Z M 561.191406 836.46875 " fill-opacity="1" fill-rule="nonzero"/></g><g clip-path="url(#1351da0cf9)"><path fill="#048ba7" d="M 627.261719 828.222656 L 632.820312 828.222656 C 635.136719 828.222656 637.070312 828.003906 638.613281 827.566406 C 640.15625 827.132812 641.394531 826.480469 642.320312 825.605469 C 643.246094 824.734375 643.910156 823.640625 644.308594 822.332031 C 644.707031 821.023438 644.90625 819.496094 644.90625 817.75 C 644.90625 815.964844 644.6875 814.441406 644.25 813.1875 C 643.8125 811.929688 643.105469 810.90625 642.128906 810.109375 C 641.148438 809.3125 639.882812 808.738281 638.324219 808.375 C 636.765625 808.015625 634.867188 807.835938 632.628906 807.835938 L 627.261719 807.835938 Z M 652.59375 844.289062 C 653.929688 846.082031 655.230469 847.421875 656.492188 848.316406 C 657.753906 849.210938 659.21875 849.65625 660.894531 849.65625 L 661.125 849.65625 L 661.125 852.472656 L 660.003906 852.472656 C 657.535156 852.472656 655.507812 852.394531 653.921875 852.242188 C 652.339844 852.089844 650.996094 851.792969 649.890625 851.359375 C 648.78125 850.921875 647.835938 850.3125 647.050781 849.527344 C 646.265625 848.742188 645.421875 847.714844 644.523438 846.449219 L 633.828125 831.363281 L 627.261719 831.363281 L 627.261719 845.175781 C 627.261719 846.15625 627.433594 846.945312 627.78125 847.546875 C 628.128906 848.144531 628.601562 848.601562 629.191406 848.902344 C 629.785156 849.210938 630.472656 849.410156 631.257812 849.511719 C 632.042969 849.609375 632.875 849.65625 633.75 849.65625 L 634.792969 849.65625 L 634.792969 852.472656 L 611.777344 852.472656 L 611.777344 849.65625 L 612.78125 849.65625 C 613.65625 849.65625 614.484375 849.609375 615.273438 849.511719 C 616.054688 849.410156 616.746094 849.210938 617.339844 848.902344 C 617.929688 848.601562 618.398438 848.144531 618.746094 847.546875 C 619.09375 846.945312 619.269531 846.15625 619.269531 845.175781 L 619.269531 811.992188 C 619.269531 811.011719 619.09375 810.21875 618.746094 809.621094 C 618.398438 809.019531 617.929688 808.554688 617.339844 808.226562 C 616.746094 807.902344 616.054688 807.6875 615.273438 807.589844 C 614.484375 807.492188 613.65625 807.445312 612.78125 807.445312 L 611.777344 807.445312 L 611.777344 804.628906 L 633.054688 804.628906 C 639.902344 804.628906 645 805.703125 648.34375 807.851562 C 651.691406 810 653.363281 813.234375 653.363281 817.554688 C 653.363281 819.34375 653.023438 820.90625 652.339844 822.25 C 651.65625 823.59375 650.761719 824.753906 649.65625 825.734375 C 648.550781 826.71875 647.300781 827.535156 645.914062 828.191406 C 644.523438 828.84375 643.132812 829.367188 641.742188 829.761719 Z M 652.59375 844.289062 " fill-opacity="1" fill-rule="nonzero"/></g><g clip-path="url(#5311a97119)"><g clip-path="url(#67f0d3f5ea)"><g transform="matrix(1, 0, 0, 1, 668, 804)"><g clip-path="url(#397ab5e696)"><g clip-path="url(#dcbf9b6ba3)"><g clip-path="url(#daf46e943e)"><path fill="#048ba7" d="M 0.898438 0.636719 L 55.132812 0.636719 L 55.132812 48.84375 L 0.898438 48.84375 Z M 0.898438 0.636719 " fill-opacity="1" fill-rule="nonzero"/></g></g></g></g></g></g><g clip-path="url(#91335722f7)"><g clip-path="url(#cd4bbaaebc)"><g transform="matrix(1, 0, 0, 1, 315, 888)"><g clip-path="url(#901535ca07)"><g clip-path="url(#c401e11705)"><g clip-path="url(#7ed6c134b2)"><path fill="#048ba7" d="M 0.785156 0.753906 L 45.472656 0.753906 L 45.472656 26.175781 L 0.785156 26.175781 Z M 0.785156 0.753906 " fill-opacity="1" fill-rule="nonzero"/></g></g></g></g></g></g><g clip-path="url(#475d1278f6)"><path fill="#048ba7" d="M 394.582031 900.417969 L 390.765625 901.257812 C 389.371094 901.574219 388.121094 901.90625 387.011719 902.253906 C 385.902344 902.605469 384.960938 903.015625 384.183594 903.488281 C 383.402344 903.957031 382.808594 904.519531 382.398438 905.164062 C 381.988281 905.8125 381.78125 906.554688 381.78125 907.394531 C 381.78125 908.722656 382.222656 909.808594 383.105469 910.644531 C 383.988281 911.484375 385.308594 911.90625 387.074219 911.90625 C 388.140625 911.90625 389.125 911.757812 390.027344 911.457031 C 390.929688 911.160156 391.71875 910.769531 392.394531 910.277344 C 393.070312 909.789062 393.605469 909.203125 393.996094 908.523438 C 394.382812 907.839844 394.582031 907.132812 394.582031 906.398438 Z M 390.117188 913.84375 C 388.457031 914.507812 386.847656 914.839844 385.289062 914.839844 C 384.058594 914.839844 382.929688 914.675781 381.90625 914.34375 C 380.878906 914.011719 380.019531 913.546875 379.320312 912.953125 C 378.621094 912.359375 378.082031 911.667969 377.691406 910.882812 C 377.300781 910.09375 377.105469 909.230469 377.105469 908.285156 C 377.105469 906.851562 377.382812 905.652344 377.9375 904.695312 C 378.492188 903.734375 379.230469 902.933594 380.152344 902.308594 C 381.074219 901.675781 382.140625 901.1875 383.351562 900.839844 C 384.5625 900.488281 385.8125 900.183594 387.105469 899.921875 C 388.398438 899.660156 389.6875 899.421875 390.980469 899.214844 C 392.273438 899.003906 393.472656 898.742188 394.582031 898.425781 L 394.582031 895.855469 C 394.582031 894.039062 394.078125 892.71875 393.070312 891.898438 C 392.066406 891.074219 390.640625 890.664062 388.796875 890.664062 C 387.402344 890.664062 386.078125 890.890625 384.828125 891.347656 C 383.574219 891.800781 382.683594 892.394531 382.152344 893.128906 L 382.273438 894.230469 C 382.191406 894.648438 381.90625 894.859375 381.414062 894.859375 C 381.289062 894.859375 381.066406 894.824219 380.734375 894.753906 C 379.832031 894.507812 379.382812 893.863281 379.382812 892.8125 C 379.628906 891.800781 380.675781 890.875 382.519531 890.035156 C 384.324219 889.160156 386.601562 888.722656 389.351562 888.722656 C 395.707031 888.722656 398.886719 891.398438 398.886719 896.746094 L 398.886719 909.597656 C 398.886719 910.578125 398.988281 911.371094 399.195312 911.984375 C 399.398438 912.597656 399.707031 912.898438 400.117188 912.898438 C 400.363281 912.898438 400.671875 912.832031 401.039062 912.691406 C 401.410156 912.550781 401.632812 912.429688 401.714844 912.324219 L 401.65625 913.109375 C 401 913.460938 400.28125 913.785156 399.503906 914.078125 C 398.722656 914.378906 397.859375 914.527344 396.917969 914.527344 C 396.21875 914.527344 395.695312 914.152344 395.347656 913.398438 C 395 912.648438 394.804688 911.675781 394.765625 910.488281 C 393.328125 912.0625 391.78125 913.179688 390.117188 913.84375 " fill-opacity="1" fill-rule="nonzero"/></g><g clip-path="url(#0ced82ceb4)"><g clip-path="url(#63221579ae)"><g transform="matrix(1, 0, 0, 1, 420, 876)"><g clip-path="url(#5f0779323e)"><g clip-path="url(#2717614ee0)"><g clip-path="url(#26c0268ac8)"><path fill="#048ba7" d="M 0.253906 0.984375 L 9.273438 0.984375 L 9.273438 38.191406 L 0.253906 38.191406 Z M 0.253906 0.984375 " fill-opacity="1" fill-rule="nonzero"/></g></g></g></g></g></g><g clip-path="url(#86e6ddcaea)"><path fill="#048ba7" d="M 468.183594 898.761719 C 468.183594 897.59375 467.988281 896.5 467.601562 895.488281 C 467.214844 894.472656 466.683594 893.601562 466.007812 892.878906 C 465.335938 892.15625 464.519531 891.589844 463.5625 891.175781 C 462.601562 890.765625 461.550781 890.558594 460.410156 890.558594 C 457.714844 890.558594 455.640625 891.460938 454.195312 893.269531 C 452.746094 895.074219 452.023438 897.523438 452.023438 900.621094 C 452.023438 904.027344 452.816406 906.710938 454.40625 908.671875 C 456 910.632812 458.222656 911.613281 461.082031 911.613281 C 462.0625 911.613281 462.988281 911.441406 463.867188 911.097656 C 464.742188 910.753906 465.5 910.273438 466.132812 909.652344 C 466.765625 909.035156 467.265625 908.308594 467.632812 907.484375 C 468 906.660156 468.183594 905.78125 468.183594 904.855469 Z M 464.296875 913.394531 C 462.847656 913.960938 461.328125 914.246094 459.734375 914.246094 C 455.816406 914.246094 452.785156 913.136719 450.644531 910.917969 C 448.5 908.699219 447.429688 905.660156 447.429688 901.808594 C 447.429688 897.921875 448.613281 894.753906 450.980469 892.3125 C 453.347656 889.835938 456.429688 888.597656 460.222656 888.597656 C 461.652344 888.597656 463.058594 888.828125 464.449219 889.292969 C 465.835938 889.757812 467.101562 890.710938 468.246094 892.15625 L 468.246094 880.289062 C 468.246094 879.738281 468.214844 879.332031 468.152344 879.074219 C 468.089844 878.816406 467.878906 878.6875 467.511719 878.6875 L 466.957031 878.738281 L 465.367188 878.636719 L 465.367188 878.378906 L 471.488281 876.933594 L 472.652344 876.984375 L 472.652344 910.738281 C 472.652344 911.355469 472.804688 911.726562 473.113281 911.847656 C 473.417969 911.96875 474.039062 912.027344 474.980469 912.027344 L 474.980469 912.441406 L 468.246094 913.988281 L 468.246094 910.21875 C 467.0625 911.769531 465.746094 912.828125 464.296875 913.394531 " fill-opacity="1" fill-rule="nonzero"/></g><g clip-path="url(#7bd9b55cd8)"><path fill="#048ba7" d="M 495.90625 878.1875 C 496.398438 877.699219 497.011719 877.457031 497.75 877.457031 C 498.488281 877.457031 499.101562 877.699219 499.59375 878.1875 C 500.082031 878.671875 500.328125 879.226562 500.328125 879.851562 C 500.328125 880.472656 500.082031 881.03125 499.59375 881.515625 C 499.101562 882 498.488281 882.242188 497.75 882.242188 C 497.011719 882.242188 496.398438 882 495.90625 881.515625 C 495.414062 881.03125 495.171875 880.472656 495.171875 879.851562 C 495.171875 879.226562 495.414062 878.671875 495.90625 878.1875 M 499.867188 913.195312 C 500.011719 913.476562 500.371094 913.613281 500.941406 913.613281 L 501.433594 913.613281 L 501.433594 914.027344 L 492.53125 914.027344 L 492.53125 913.613281 L 493.328125 913.613281 C 494.066406 913.613281 494.566406 913.457031 494.832031 913.144531 C 495.097656 912.832031 495.230469 912.261719 495.230469 911.425781 L 495.230469 892.648438 C 495.230469 892.09375 495.191406 891.6875 495.109375 891.425781 C 495.027344 891.164062 494.761719 891.035156 494.308594 891.035156 L 493.695312 891.085938 L 492.46875 890.933594 L 492.46875 890.671875 L 498.488281 888.902344 L 499.652344 888.953125 L 499.652344 911.582031 C 499.652344 912.382812 499.722656 912.917969 499.867188 913.195312 " fill-opacity="1" fill-rule="nonzero"/></g><g clip-path="url(#fa74dbbf7a)"><g clip-path="url(#9e17abd57b)"><g transform="matrix(1, 0, 0, 1, 518, 889)"><g clip-path="url(#39b8958910)"><g clip-path="url(#45a0fb95d6)"><g clip-path="url(#922927f92d)"><path fill="#048ba7" d="M 0.558594 0.300781 L 28.035156 0.300781 L 28.035156 25.511719 L 0.558594 25.511719 Z M 0.558594 0.300781 " fill-opacity="1" fill-rule="nonzero"/></g></g></g></g></g></g><g clip-path="url(#1d0c9f96ba)"><path fill="#048ba7" d="M 580.398438 898.402344 C 580.191406 896.09375 579.53125 894.285156 578.414062 892.972656 C 577.296875 891.660156 575.683594 891.003906 573.574219 891.003906 C 571.007812 891.003906 568.960938 891.847656 567.429688 893.523438 C 566.355469 894.710938 565.652344 896.339844 565.320312 898.402344 Z M 583.71875 910.621094 C 582.871094 911.425781 581.921875 912.132812 580.867188 912.746094 C 579.808594 913.355469 578.671875 913.84375 577.453125 914.214844 C 576.230469 914.582031 574.980469 914.765625 573.699219 914.765625 C 569.726562 914.765625 566.652344 913.664062 564.484375 911.460938 C 562.3125 909.257812 561.222656 906.199219 561.222656 902.28125 C 561.222656 898.261719 562.421875 895.011719 564.824219 892.527344 C 567.222656 889.976562 570.367188 888.699219 574.257812 888.699219 C 577.894531 888.699219 580.617188 889.722656 582.417969 891.765625 C 584.21875 893.8125 585.324219 896.566406 585.734375 900.027344 L 585.796875 900.550781 L 565.195312 900.550781 C 565.320312 903.839844 566.230469 906.460938 567.925781 908.417969 C 569.789062 910.515625 572.332031 911.5625 575.558594 911.5625 C 577.835938 911.5625 579.800781 911.074219 581.457031 910.097656 C 583.191406 909.082031 584.328125 908.207031 584.867188 907.472656 L 585.796875 908.15625 C 585.261719 908.996094 584.566406 909.816406 583.71875 910.621094 " fill-opacity="1" fill-rule="nonzero"/></g><g clip-path="url(#7f35a0bcac)"><g clip-path="url(#b2c10b3584)"><g transform="matrix(1, 0, 0, 1, 604, 888)"><g clip-path="url(#053a39389e)"><g clip-path="url(#9d3d747aea)"><g clip-path="url(#59b29b31d3)"><path fill="#048ba7" d="M 0.832031 0.488281 L 19.53125 0.488281 L 19.53125 26.710938 L 0.832031 26.710938 Z M 0.832031 0.488281 " fill-opacity="1" fill-rule="nonzero"/></g></g></g></g></g></g></svg>