<svg xmlns="http://www.w3.org/2000/svg" xmlns:xlink="http://www.w3.org/1999/xlink" width="1261" zoomAndPan="magnify" viewBox="0 0 945.75 1166.999949" height="1556" preserveAspectRatio="xMidYMid meet" version="1.0"><defs><clipPath id="80185269bc"><path d="M 0 0.152344 L 945.5 0.152344 L 945.5 1166.84375 L 0 1166.84375 Z M 0 0.152344 " clip-rule="nonzero"/></clipPath><clipPath id="4c3c2018b1"><path d="M 267.457031 631.84375 L 298.746094 631.84375 L 298.746094 665.453125 L 267.457031 665.453125 Z M 267.457031 631.84375 " clip-rule="nonzero"/></clipPath><clipPath id="82a0181725"><path d="M 296.292969 631.84375 L 298.746094 631.84375 L 298.746094 665.441406 L 296.007812 665.441406 L 296.007812 638.542969 L 284.210938 665.441406 L 282.039062 665.441406 L 270.148438 638.777344 L 270.195312 665.441406 L 267.457031 665.441406 L 267.457031 631.84375 L 269.867188 631.84375 L 283.171875 661.949219 Z M 296.292969 631.84375 " clip-rule="nonzero"/></clipPath><clipPath id="008169b353"><path d="M 0.457031 0.84375 L 31.746094 0.84375 L 31.746094 34.453125 L 0.457031 34.453125 Z M 0.457031 0.84375 " clip-rule="nonzero"/></clipPath><clipPath id="8c14221e56"><path d="M 29.292969 0.84375 L 31.746094 0.84375 L 31.746094 34.441406 L 29.007812 34.441406 L 29.007812 7.542969 L 17.210938 34.441406 L 15.039062 34.441406 L 3.148438 7.777344 L 3.195312 34.441406 L 0.457031 34.441406 L 0.457031 0.84375 L 2.867188 0.84375 L 16.171875 30.949219 Z M 29.292969 0.84375 " clip-rule="nonzero"/></clipPath><clipPath id="e8c71af523"><rect x="0" width="32" y="0" height="35"/></clipPath><clipPath id="1003c039cc"><path d="M 324.832031 631.84375 L 357 631.84375 L 357 665.585938 L 324.832031 665.585938 Z M 324.832031 631.84375 " clip-rule="nonzero"/></clipPath><clipPath id="7468008716"><path d="M 384.09375 631.84375 L 411.835938 631.84375 L 411.835938 665.585938 L 384.09375 665.585938 Z M 384.09375 631.84375 " clip-rule="nonzero"/></clipPath><clipPath id="317f905d40"><path d="M 436.777344 631.84375 L 439.707031 631.84375 L 439.707031 665.441406 L 436.777344 665.441406 Z M 436.777344 631.84375 " clip-rule="nonzero"/></clipPath><clipPath id="b52aef24a2"><path d="M 0.777344 0.84375 L 3.707031 0.84375 L 3.707031 34.441406 L 0.777344 34.441406 Z M 0.777344 0.84375 " clip-rule="nonzero"/></clipPath><clipPath id="2cd11a7d50"><rect x="0" width="4" y="0" height="35"/></clipPath><clipPath id="efa6d7b7b9"><path d="M 468.375 631.84375 L 488.535156 631.84375 L 488.535156 634.332031 L 468.375 634.332031 Z M 468.375 634.332031 L 471.289062 634.332031 L 471.289062 647.019531 L 468.375 647.019531 Z M 468.375 647.019531 L 487.59375 647.019531 L 487.59375 649.605469 L 468.375 649.605469 Z M 468.375 649.605469 L 471.289062 649.605469 L 471.289062 665.300781 L 468.375 665.300781 Z M 468.375 649.605469 " clip-rule="nonzero"/></clipPath><clipPath id="44f2a6a01c"><path d="M 0.375 0.84375 L 20.535156 0.84375 L 20.535156 3.332031 L 0.375 3.332031 Z M 0.375 3.332031 L 3.289062 3.332031 L 3.289062 16.019531 L 0.375 16.019531 Z M 0.375 16.019531 L 19.59375 16.019531 L 19.59375 18.605469 L 0.375 18.605469 Z M 0.375 18.605469 L 3.289062 18.605469 L 3.289062 34.300781 L 0.375 34.300781 Z M 0.375 18.605469 " clip-rule="nonzero"/></clipPath><clipPath id="5765777b98"><rect x="0" width="21" y="0" height="35"/></clipPath><clipPath id="bc79a1e305"><path d="M 517.453125 631.773438 L 543.816406 631.773438 L 543.816406 665.898438 L 517.453125 665.898438 Z M 517.453125 631.773438 " clip-rule="nonzero"/></clipPath><clipPath id="ce7aba4334"><path d="M 520.894531 662.496094 C 518.671875 660.242188 517.554688 656.914062 517.554688 652.523438 L 517.554688 631.773438 L 520.492188 631.773438 L 520.492188 652.855469 C 520.492188 659.808594 523.886719 663.277344 530.683594 663.277344 C 534 663.277344 536.515625 662.402344 538.242188 660.652344 C 539.960938 658.898438 540.820312 656.296875 540.820312 652.855469 L 540.820312 631.773438 L 543.714844 631.773438 L 543.714844 652.523438 C 543.714844 656.914062 542.605469 660.242188 540.394531 662.496094 C 538.183594 664.757812 534.945312 665.886719 530.683594 665.886719 C 526.382812 665.886719 523.125 664.757812 520.894531 662.496094 Z M 520.894531 662.496094 " clip-rule="nonzero"/></clipPath><clipPath id="634a2b3fb0"><path d="M 0.542969 0.773438 L 26.816406 0.773438 L 26.816406 34.898438 L 0.542969 34.898438 Z M 0.542969 0.773438 " clip-rule="nonzero"/></clipPath><clipPath id="0aead67d0b"><path d="M 3.894531 31.496094 C 1.671875 29.242188 0.554688 25.914062 0.554688 21.523438 L 0.554688 0.773438 L 3.492188 0.773438 L 3.492188 21.855469 C 3.492188 28.808594 6.886719 32.277344 13.683594 32.277344 C 17 32.277344 19.515625 31.402344 21.242188 29.652344 C 22.960938 27.898438 23.820312 25.296875 23.820312 21.855469 L 23.820312 0.773438 L 26.714844 0.773438 L 26.714844 21.523438 C 26.714844 25.914062 25.605469 29.242188 23.394531 31.496094 C 21.183594 33.757812 17.945312 34.886719 13.683594 34.886719 C 9.382812 34.886719 6.125 33.757812 3.894531 31.496094 Z M 3.894531 31.496094 " clip-rule="nonzero"/></clipPath><clipPath id="94088b106d"><rect x="0" width="27" y="0" height="35"/></clipPath><clipPath id="dce3895fd0"><path d="M 570.976562 631.488281 L 595.15625 631.488281 L 595.15625 665.777344 L 570.976562 665.777344 Z M 570.976562 631.488281 " clip-rule="nonzero"/></clipPath><clipPath id="8d9b44b9b1"><path d="M 576.339844 664.644531 C 574.328125 663.941406 572.539062 662.839844 570.976562 661.339844 L 572.195312 659.046875 C 573.851562 660.511719 575.53125 661.558594 577.230469 662.183594 C 578.933594 662.808594 580.957031 663.121094 583.300781 663.121094 C 586.109375 663.121094 588.296875 662.542969 589.859375 661.386719 C 591.421875 660.234375 592.203125 658.605469 592.203125 656.515625 C 592.203125 655.296875 591.820312 654.304688 591.054688 653.539062 C 590.292969 652.773438 589.320312 652.171875 588.148438 651.734375 C 586.980469 651.296875 585.425781 650.859375 583.488281 650.421875 C 580.925781 649.859375 578.839844 649.273438 577.230469 648.664062 C 575.625 648.054688 574.269531 647.140625 573.179688 645.921875 C 572.082031 644.707031 571.539062 643.082031 571.539062 641.050781 C 571.539062 639.175781 572.023438 637.519531 572.992188 636.082031 C 573.957031 634.644531 575.339844 633.535156 577.136719 632.753906 C 578.933594 631.976562 581.019531 631.582031 583.390625 631.582031 C 585.671875 631.582031 587.78125 631.953125 589.71875 632.6875 C 591.652344 633.417969 593.332031 634.503906 594.730469 635.941406 L 593.519531 638.238281 C 591.953125 636.832031 590.359375 635.800781 588.734375 635.144531 C 587.109375 634.492188 585.328125 634.160156 583.390625 634.160156 C 580.582031 634.160156 578.386719 634.769531 576.808594 635.988281 C 575.230469 637.207031 574.441406 638.878906 574.441406 641.003906 C 574.441406 642.847656 575.128906 644.21875 576.503906 645.128906 C 577.882812 646.03125 579.894531 646.796875 582.550781 647.421875 L 583.910156 647.75 C 586.40625 648.34375 588.390625 648.921875 589.859375 649.484375 C 591.328125 650.046875 592.578125 650.890625 593.609375 652.015625 C 594.640625 653.140625 595.15625 654.640625 595.15625 656.515625 C 595.15625 658.324219 594.671875 659.929688 593.703125 661.316406 C 592.734375 662.710938 591.351562 663.785156 589.554688 664.550781 C 587.757812 665.316406 585.671875 665.699219 583.300781 665.699219 C 580.675781 665.699219 578.359375 665.34375 576.339844 664.644531 Z M 576.339844 664.644531 " clip-rule="nonzero"/></clipPath><clipPath id="d7aac80633"><path d="M 0.976562 0.488281 L 25.15625 0.488281 L 25.15625 34.738281 L 0.976562 34.738281 Z M 0.976562 0.488281 " clip-rule="nonzero"/></clipPath><clipPath id="fec5e67e73"><path d="M 6.339844 33.644531 C 4.328125 32.941406 2.539062 31.839844 0.976562 30.339844 L 2.195312 28.046875 C 3.851562 29.511719 5.53125 30.558594 7.230469 31.183594 C 8.933594 31.808594 10.957031 32.121094 13.300781 32.121094 C 16.109375 32.121094 18.296875 31.542969 19.859375 30.386719 C 21.421875 29.234375 22.203125 27.605469 22.203125 25.515625 C 22.203125 24.296875 21.820312 23.304688 21.054688 22.539062 C 20.292969 21.773438 19.320312 21.171875 18.148438 20.734375 C 16.980469 20.296875 15.425781 19.859375 13.488281 19.421875 C 10.925781 18.859375 8.839844 18.273438 7.230469 17.664062 C 5.625 17.054688 4.269531 16.140625 3.179688 14.921875 C 2.082031 13.707031 1.539062 12.082031 1.539062 10.050781 C 1.539062 8.175781 2.023438 6.519531 2.992188 5.082031 C 3.957031 3.644531 5.339844 2.535156 7.136719 1.753906 C 8.933594 0.976562 11.019531 0.582031 13.390625 0.582031 C 15.671875 0.582031 17.78125 0.953125 19.71875 1.6875 C 21.652344 2.417969 23.332031 3.503906 24.730469 4.941406 L 23.519531 7.238281 C 21.953125 5.832031 20.359375 4.800781 18.734375 4.144531 C 17.109375 3.492188 15.328125 3.160156 13.390625 3.160156 C 10.582031 3.160156 8.386719 3.769531 6.808594 4.988281 C 5.230469 6.207031 4.441406 7.878906 4.441406 10.003906 C 4.441406 11.847656 5.128906 13.21875 6.503906 14.128906 C 7.882812 15.03125 9.894531 15.796875 12.550781 16.421875 L 13.910156 16.75 C 16.40625 17.34375 18.390625 17.921875 19.859375 18.484375 C 21.328125 19.046875 22.578125 19.890625 23.609375 21.015625 C 24.640625 22.140625 25.15625 23.640625 25.15625 25.515625 C 25.15625 27.324219 24.671875 28.929688 23.703125 30.316406 C 22.734375 31.710938 21.351562 32.785156 19.554688 33.550781 C 17.757812 34.316406 15.671875 34.699219 13.300781 34.699219 C 10.675781 34.699219 8.359375 34.34375 6.339844 33.644531 Z M 6.339844 33.644531 " clip-rule="nonzero"/></clipPath><clipPath id="5b231edd98"><rect x="0" width="26" y="0" height="35"/></clipPath><clipPath id="71ac0e6fa0"><path d="M 643.046875 631.84375 L 645.972656 631.84375 L 645.972656 647.082031 L 643.046875 647.082031 Z M 618.695312 631.84375 L 621.621094 631.84375 L 621.621094 647.082031 L 618.695312 647.082031 Z M 618.695312 647.082031 L 645.972656 647.082031 L 645.972656 649.679688 L 618.695312 649.679688 Z M 618.695312 649.679688 L 621.621094 649.679688 L 621.621094 665.441406 L 618.695312 665.441406 Z M 643.046875 649.679688 L 645.972656 649.679688 L 645.972656 665.441406 L 643.046875 665.441406 Z M 643.046875 649.679688 " clip-rule="nonzero"/></clipPath><clipPath id="74fe853ab8"><path d="M 25.046875 0.84375 L 27.972656 0.84375 L 27.972656 16.082031 L 25.046875 16.082031 Z M 0.695312 0.84375 L 3.621094 0.84375 L 3.621094 16.082031 L 0.695312 16.082031 Z M 0.695312 16.082031 L 27.972656 16.082031 L 27.972656 18.679688 L 0.695312 18.679688 Z M 0.695312 18.679688 L 3.621094 18.679688 L 3.621094 34.441406 L 0.695312 34.441406 Z M 25.046875 18.679688 L 27.972656 18.679688 L 27.972656 34.441406 L 25.046875 34.441406 Z M 25.046875 18.679688 " clip-rule="nonzero"/></clipPath><clipPath id="d6ee78d1fb"><rect x="0" width="28" y="0" height="35"/></clipPath><clipPath id="0e38ca515e"><path d="M 673.742188 631.84375 L 676.671875 631.84375 L 676.671875 665.441406 L 673.742188 665.441406 Z M 673.742188 631.84375 " clip-rule="nonzero"/></clipPath><clipPath id="fdbf04fc39"><path d="M 0.742188 0.84375 L 3.671875 0.84375 L 3.671875 34.441406 L 0.742188 34.441406 Z M 0.742188 0.84375 " clip-rule="nonzero"/></clipPath><clipPath id="f625f3be3d"><rect x="0" width="4" y="0" height="35"/></clipPath><clipPath id="5bf2ff3758"><path d="M 169.949219 696.363281 L 190.945312 696.363281 L 190.945312 726.355469 L 169.949219 726.355469 Z M 169.949219 696.363281 " clip-rule="nonzero"/></clipPath><clipPath id="29a8639205"><path d="M 219.21875 696.363281 L 242.460938 696.363281 L 242.460938 726.355469 L 219.21875 726.355469 Z M 219.21875 696.363281 " clip-rule="nonzero"/></clipPath><clipPath id="11e6967cdb"><path d="M 270.328125 696.363281 L 272.9375 696.363281 L 272.9375 726.34375 L 270.328125 726.34375 Z M 270.328125 696.363281 " clip-rule="nonzero"/></clipPath><clipPath id="0b8d4c2cc9"><path d="M 0.328125 0.363281 L 2.9375 0.363281 L 2.9375 30.34375 L 0.328125 30.34375 Z M 0.328125 0.363281 " clip-rule="nonzero"/></clipPath><clipPath id="59365d245d"><rect x="0" width="3" y="0" height="31"/></clipPath><clipPath id="7d02c60224"><path d="M 299.589844 696.253906 L 328 696.253906 L 328 726.359375 L 299.589844 726.359375 Z M 299.589844 696.253906 " clip-rule="nonzero"/></clipPath><clipPath id="626717b578"><path d="M 325.230469 696.363281 L 327.925781 696.363281 L 314.957031 726.34375 L 312.558594 726.34375 L 299.589844 696.363281 L 302.324219 696.363281 L 313.777344 722.972656 Z M 325.230469 696.363281 " clip-rule="nonzero"/></clipPath><clipPath id="16ca5b66dd"><path d="M 0.589844 0.253906 L 28.992188 0.253906 L 28.992188 30.359375 L 0.589844 30.359375 Z M 0.589844 0.253906 " clip-rule="nonzero"/></clipPath><clipPath id="76276092ed"><path d="M 26.230469 0.363281 L 28.925781 0.363281 L 15.957031 30.34375 L 13.558594 30.34375 L 0.589844 0.363281 L 3.324219 0.363281 L 14.777344 26.972656 Z M 26.230469 0.363281 " clip-rule="nonzero"/></clipPath><clipPath id="594d2de86f"><rect x="0" width="29" y="0" height="31"/></clipPath><clipPath id="9bde1c1569"><path d="M 351.589844 696.363281 L 380 696.363281 L 380 726.355469 L 351.589844 726.355469 Z M 351.589844 696.363281 " clip-rule="nonzero"/></clipPath><clipPath id="4e103c92ac"><path d="M 403.75 696.363281 L 427.835938 696.363281 L 427.835938 698.636719 L 403.75 698.636719 Z M 414.484375 698.636719 L 417.097656 698.636719 L 417.097656 726.34375 L 414.484375 726.34375 Z M 414.484375 698.636719 " clip-rule="nonzero"/></clipPath><clipPath id="4b32b3f674"><path d="M 0.75 0.363281 L 24.835938 0.363281 L 24.835938 2.636719 L 0.75 2.636719 Z M 11.484375 2.636719 L 14.097656 2.636719 L 14.097656 30.34375 L 11.484375 30.34375 Z M 11.484375 2.636719 " clip-rule="nonzero"/></clipPath><clipPath id="6094bd2531"><rect x="0" width="25" y="0" height="31"/></clipPath><clipPath id="544e1d0f84"><path d="M 454.503906 696.363281 L 472.988281 696.363281 L 472.988281 698.59375 L 454.503906 698.59375 Z M 454.503906 698.59375 L 457.074219 698.59375 L 457.074219 709.964844 L 454.503906 709.964844 Z M 454.503906 709.964844 L 472.148438 709.964844 L 472.148438 712.28125 L 454.503906 712.28125 Z M 454.503906 712.28125 L 457.074219 712.28125 L 457.074219 724.109375 L 454.503906 724.109375 Z M 454.503906 724.109375 L 472.988281 724.109375 L 472.988281 726.34375 L 454.503906 726.34375 Z M 454.503906 724.109375 " clip-rule="nonzero"/></clipPath><clipPath id="994821f48c"><path d="M 0.503906 0.363281 L 18.988281 0.363281 L 18.988281 2.59375 L 0.503906 2.59375 Z M 0.503906 2.59375 L 3.074219 2.59375 L 3.074219 13.964844 L 0.503906 13.964844 Z M 0.503906 13.964844 L 18.148438 13.964844 L 18.148438 16.28125 L 0.503906 16.28125 Z M 0.503906 16.28125 L 3.074219 16.28125 L 3.074219 28.109375 L 0.503906 28.109375 Z M 0.503906 28.109375 L 18.988281 28.109375 L 18.988281 30.34375 L 0.503906 30.34375 Z M 0.503906 28.109375 " clip-rule="nonzero"/></clipPath><clipPath id="f88cd16017"><rect x="0" width="19" y="0" height="31"/></clipPath><clipPath id="32ec7cd4f1"><path d="M 517.792969 696.363281 L 520.402344 696.363281 L 520.402344 726.34375 L 517.792969 726.34375 Z M 517.792969 696.363281 " clip-rule="nonzero"/></clipPath><clipPath id="0602787fec"><path d="M 0.792969 0.363281 L 3.402344 0.363281 L 3.402344 30.34375 L 0.792969 30.34375 Z M 0.792969 0.363281 " clip-rule="nonzero"/></clipPath><clipPath id="f913e50977"><rect x="0" width="4" y="0" height="31"/></clipPath><clipPath id="bf6117f1b3"><path d="M 548.847656 696.105469 L 570.546875 696.105469 L 570.546875 726.671875 L 548.847656 726.671875 Z M 548.847656 696.105469 " clip-rule="nonzero"/></clipPath><clipPath id="c918bb874a"><path d="M 553.726562 725.660156 C 551.925781 725.03125 550.328125 724.046875 548.929688 722.707031 L 550.019531 720.65625 C 551.5 721.96875 553 722.90625 554.523438 723.460938 C 556.042969 724.019531 557.851562 724.300781 559.949219 724.300781 C 562.464844 724.300781 564.417969 723.785156 565.8125 722.746094 C 567.210938 721.71875 567.90625 720.265625 567.90625 718.394531 C 567.90625 717.304688 567.5625 716.417969 566.882812 715.734375 C 566.199219 715.046875 565.332031 714.511719 564.285156 714.121094 C 563.234375 713.730469 561.847656 713.339844 560.117188 712.949219 C 557.824219 712.445312 555.960938 711.921875 554.523438 711.375 C 553.082031 710.832031 551.875 710.015625 550.898438 708.925781 C 549.921875 707.835938 549.433594 706.386719 549.433594 704.566406 C 549.433594 702.894531 549.867188 701.414062 550.730469 700.128906 C 551.597656 698.84375 552.832031 697.851562 554.4375 697.152344 C 556.042969 696.453125 557.910156 696.105469 560.035156 696.105469 C 562.070312 696.105469 563.953125 696.433594 565.6875 697.089844 C 567.417969 697.746094 568.914062 698.71875 570.167969 700 L 569.082031 702.054688 C 567.683594 700.796875 566.257812 699.878906 564.808594 699.289062 C 563.355469 698.703125 561.765625 698.40625 560.035156 698.40625 C 557.519531 698.40625 555.558594 698.953125 554.144531 700.042969 C 552.734375 701.132812 552.03125 702.625 552.03125 704.527344 C 552.03125 706.175781 552.644531 707.402344 553.871094 708.210938 C 555.101562 709.023438 556.90625 709.707031 559.277344 710.265625 L 560.492188 710.558594 C 562.726562 711.089844 564.5 711.609375 565.8125 712.109375 C 567.125 712.613281 568.242188 713.367188 569.164062 714.371094 C 570.085938 715.375 570.546875 716.71875 570.546875 718.394531 C 570.546875 720.011719 570.113281 721.445312 569.246094 722.6875 C 568.382812 723.929688 567.148438 724.894531 565.539062 725.578125 C 563.933594 726.261719 562.070312 726.601562 559.949219 726.601562 C 557.601562 726.601562 555.53125 726.289062 553.726562 725.660156 Z M 553.726562 725.660156 " clip-rule="nonzero"/></clipPath><clipPath id="70bcd65fd9"><path d="M 0.847656 0.105469 L 22.546875 0.105469 L 22.546875 30.671875 L 0.847656 30.671875 Z M 0.847656 0.105469 " clip-rule="nonzero"/></clipPath><clipPath id="4e3702f91a"><path d="M 5.726562 29.660156 C 3.925781 29.03125 2.328125 28.046875 0.929688 26.707031 L 2.019531 24.65625 C 3.5 25.96875 5 26.90625 6.523438 27.460938 C 8.042969 28.019531 9.851562 28.300781 11.949219 28.300781 C 14.464844 28.300781 16.417969 27.785156 17.8125 26.746094 C 19.210938 25.71875 19.90625 24.265625 19.90625 22.394531 C 19.90625 21.304688 19.5625 20.417969 18.882812 19.734375 C 18.199219 19.046875 17.332031 18.511719 16.285156 18.121094 C 15.234375 17.730469 13.847656 17.339844 12.117188 16.949219 C 9.824219 16.445312 7.960938 15.921875 6.523438 15.375 C 5.082031 14.832031 3.875 14.015625 2.898438 12.925781 C 1.921875 11.835938 1.433594 10.386719 1.433594 8.566406 C 1.433594 6.894531 1.867188 5.414062 2.730469 4.128906 C 3.597656 2.84375 4.832031 1.851562 6.4375 1.152344 C 8.042969 0.453125 9.910156 0.105469 12.035156 0.105469 C 14.070312 0.105469 15.953125 0.433594 17.6875 1.089844 C 19.417969 1.746094 20.914062 2.71875 22.167969 4 L 21.082031 6.054688 C 19.683594 4.796875 18.257812 3.878906 16.808594 3.289062 C 15.355469 2.703125 13.765625 2.40625 12.035156 2.40625 C 9.519531 2.40625 7.558594 2.953125 6.144531 4.042969 C 4.734375 5.132812 4.03125 6.625 4.03125 8.527344 C 4.03125 10.175781 4.644531 11.402344 5.871094 12.210938 C 7.101562 13.023438 8.90625 13.707031 11.277344 14.265625 L 12.492188 14.558594 C 14.726562 15.089844 16.5 15.609375 17.8125 16.109375 C 19.125 16.613281 20.242188 17.367188 21.164062 18.371094 C 22.085938 19.375 22.546875 20.71875 22.546875 22.394531 C 22.546875 24.011719 22.113281 25.445312 21.246094 26.6875 C 20.382812 27.929688 19.148438 28.894531 17.539062 29.578125 C 15.933594 30.261719 14.070312 30.601562 11.949219 30.601562 C 9.601562 30.601562 7.53125 30.289062 5.726562 29.660156 Z M 5.726562 29.660156 " clip-rule="nonzero"/></clipPath><clipPath id="6e563464fa"><rect x="0" width="23" y="0" height="31"/></clipPath><clipPath id="ceb93fb75c"><path d="M 598.757812 696.363281 L 601.367188 696.363281 L 601.367188 724.050781 L 598.757812 724.050781 Z M 598.757812 724.050781 L 616.851562 724.050781 L 616.851562 726.324219 L 598.757812 726.324219 Z M 598.757812 724.050781 " clip-rule="nonzero"/></clipPath><clipPath id="1f3cd2444f"><path d="M 0.757812 0.363281 L 3.367188 0.363281 L 3.367188 28.050781 L 0.757812 28.050781 Z M 0.757812 28.050781 L 18.851562 28.050781 L 18.851562 30.324219 L 0.757812 30.324219 Z M 0.757812 28.050781 " clip-rule="nonzero"/></clipPath><clipPath id="25075693cb"><rect x="0" width="19" y="0" height="31"/></clipPath><clipPath id="20b74376cd"><path d="M 640.875 696.363281 L 669.367188 696.363281 L 669.367188 726.355469 L 640.875 726.355469 Z M 640.875 696.363281 " clip-rule="nonzero"/></clipPath><clipPath id="33f0b29847"><path d="M 696.351562 696.273438 L 719.9375 696.273438 L 719.9375 726.375 L 696.351562 726.375 Z M 696.351562 696.273438 " clip-rule="nonzero"/></clipPath><clipPath id="9d3e347637"><path d="M 717.40625 696.363281 L 719.847656 696.363281 L 719.847656 726.34375 L 717.824219 726.34375 L 698.796875 700.785156 L 698.796875 726.34375 L 696.351562 726.34375 L 696.351562 696.363281 L 698.414062 696.363281 L 717.40625 721.921875 Z M 717.40625 696.363281 " clip-rule="nonzero"/></clipPath><clipPath id="99a1ee2f05"><path d="M 0.351562 0.273438 L 23.9375 0.273438 L 23.9375 30.375 L 0.351562 30.375 Z M 0.351562 0.273438 " clip-rule="nonzero"/></clipPath><clipPath id="be3a5fe92d"><path d="M 21.40625 0.363281 L 23.847656 0.363281 L 23.847656 30.34375 L 21.824219 30.34375 L 2.796875 4.785156 L 2.796875 30.34375 L 0.351562 30.34375 L 0.351562 0.363281 L 2.414062 0.363281 L 21.40625 25.921875 Z M 21.40625 0.363281 " clip-rule="nonzero"/></clipPath><clipPath id="5404eb5915"><rect x="0" width="24" y="0" height="31"/></clipPath><clipPath id="4f86e3c9f9"><path d="M 749.820312 696.363281 L 774.5625 696.363281 L 774.5625 726.355469 L 749.820312 726.355469 Z M 749.820312 696.363281 " clip-rule="nonzero"/></clipPath><clipPath id="7649e3870a"><path d="M 292.277344 757.199219 L 320.300781 757.199219 L 320.300781 787.292969 L 292.277344 787.292969 Z M 292.277344 757.199219 " clip-rule="nonzero"/></clipPath><clipPath id="ce3fc32888"><path d="M 318.109375 757.308594 L 320.300781 757.308594 L 320.300781 787.285156 L 317.859375 787.285156 L 317.859375 763.289062 L 307.332031 787.285156 L 305.398438 787.285156 L 294.785156 763.5 L 294.832031 787.285156 L 292.386719 787.285156 L 292.386719 757.308594 L 294.535156 757.308594 L 306.402344 784.171875 Z M 318.109375 757.308594 " clip-rule="nonzero"/></clipPath><clipPath id="f1be758fd9"><path d="M 0.277344 0.199219 L 28.300781 0.199219 L 28.300781 30.292969 L 0.277344 30.292969 Z M 0.277344 0.199219 " clip-rule="nonzero"/></clipPath><clipPath id="7b9486b29b"><path d="M 26.109375 0.308594 L 28.300781 0.308594 L 28.300781 30.285156 L 25.859375 30.285156 L 25.859375 6.289062 L 15.332031 30.285156 L 13.398438 30.285156 L 2.785156 6.5 L 2.832031 30.285156 L 0.386719 30.285156 L 0.386719 0.308594 L 2.535156 0.308594 L 14.402344 27.171875 Z M 26.109375 0.308594 " clip-rule="nonzero"/></clipPath><clipPath id="a77798df19"><rect x="0" width="29" y="0" height="31"/></clipPath><clipPath id="14cfc0ee4f"><path d="M 347.46875 757.308594 L 375.964844 757.308594 L 375.964844 787.300781 L 347.46875 787.300781 Z M 347.46875 757.308594 " clip-rule="nonzero"/></clipPath><clipPath id="b43a9b164f"><path d="M 403.105469 757.308594 L 405.714844 757.308594 L 405.714844 784.996094 L 403.105469 784.996094 Z M 403.105469 784.996094 L 421.199219 784.996094 L 421.199219 787.269531 L 403.105469 787.269531 Z M 403.105469 784.996094 " clip-rule="nonzero"/></clipPath><clipPath id="cce4e8662b"><path d="M 0.105469 0.308594 L 2.714844 0.308594 L 2.714844 27.996094 L 0.105469 27.996094 Z M 0.105469 27.996094 L 18.199219 27.996094 L 18.199219 30.269531 L 0.105469 30.269531 Z M 0.105469 27.996094 " clip-rule="nonzero"/></clipPath><clipPath id="84ec7fb19c"><rect x="0" width="19" y="0" height="31"/></clipPath><clipPath id="28fce562ad"><path d="M 447.863281 757.308594 L 472.605469 757.308594 L 472.605469 787.300781 L 447.863281 787.300781 Z M 447.863281 757.308594 " clip-rule="nonzero"/></clipPath><clipPath id="2131c91d0c"><path d="M 501.152344 757.308594 L 503.765625 757.308594 L 503.765625 787.289062 L 501.152344 787.289062 Z M 501.152344 757.308594 " clip-rule="nonzero"/></clipPath><clipPath id="5668d48cd2"><path d="M 0.152344 0.308594 L 2.765625 0.308594 L 2.765625 30.289062 L 0.152344 30.289062 Z M 0.152344 0.308594 " clip-rule="nonzero"/></clipPath><clipPath id="d1f580b884"><rect x="0" width="3" y="0" height="31"/></clipPath><clipPath id="0060c0150f"><path d="M 530.414062 757.199219 L 558.859375 757.199219 L 558.859375 787.304688 L 530.414062 787.304688 Z M 530.414062 757.199219 " clip-rule="nonzero"/></clipPath><clipPath id="e4e40ed4f8"><path d="M 556.050781 757.308594 L 558.75 757.308594 L 545.777344 787.289062 L 543.378906 787.289062 L 530.414062 757.308594 L 533.144531 757.308594 L 544.597656 783.921875 Z M 556.050781 757.308594 " clip-rule="nonzero"/></clipPath><clipPath id="5ec8c87ebb"><path d="M 0.414062 0.199219 L 28.8125 0.199219 L 28.8125 30.304688 L 0.414062 30.304688 Z M 0.414062 0.199219 " clip-rule="nonzero"/></clipPath><clipPath id="e1e6038aa2"><path d="M 26.050781 0.308594 L 28.75 0.308594 L 15.777344 30.289062 L 13.378906 30.289062 L 0.414062 0.308594 L 3.144531 0.308594 L 14.597656 26.921875 Z M 26.050781 0.308594 " clip-rule="nonzero"/></clipPath><clipPath id="bd8eb558c5"><rect x="0" width="29" y="0" height="31"/></clipPath><clipPath id="9487958a7f"><path d="M 585.136719 757.308594 L 603.621094 757.308594 L 603.621094 759.542969 L 585.136719 759.542969 Z M 585.136719 759.542969 L 587.710938 759.542969 L 587.710938 770.910156 L 585.136719 770.910156 Z M 585.136719 770.910156 L 602.78125 770.910156 L 602.78125 773.226562 L 585.136719 773.226562 Z M 585.136719 773.226562 L 587.710938 773.226562 L 587.710938 785.058594 L 585.136719 785.058594 Z M 585.136719 785.058594 L 603.621094 785.058594 L 603.621094 787.289062 L 585.136719 787.289062 Z M 585.136719 785.058594 " clip-rule="nonzero"/></clipPath><clipPath id="5846b77a9c"><path d="M 0.136719 0.308594 L 18.621094 0.308594 L 18.621094 2.542969 L 0.136719 2.542969 Z M 0.136719 2.542969 L 2.710938 2.542969 L 2.710938 13.910156 L 0.136719 13.910156 Z M 0.136719 13.910156 L 17.78125 13.910156 L 17.78125 16.226562 L 0.136719 16.226562 Z M 0.136719 16.226562 L 2.710938 16.226562 L 2.710938 28.058594 L 0.136719 28.058594 Z M 0.136719 28.058594 L 18.621094 28.058594 L 18.621094 30.289062 L 0.136719 30.289062 Z M 0.136719 28.058594 " clip-rule="nonzero"/></clipPath><clipPath id="988132a6ce"><rect x="0" width="19" y="0" height="31"/></clipPath><clipPath id="0cdb40d7ee"><path d="M 630.328125 757.054688 L 651.941406 757.054688 L 651.941406 787.621094 L 630.328125 787.621094 Z M 630.328125 757.054688 " clip-rule="nonzero"/></clipPath><clipPath id="0cf17e9493"><path d="M 635.125 786.605469 C 633.320312 785.980469 631.726562 784.996094 630.328125 783.65625 L 631.417969 781.605469 C 632.898438 782.914062 634.398438 783.851562 635.917969 784.40625 C 637.4375 784.964844 639.246094 785.246094 641.347656 785.246094 C 643.859375 785.246094 645.8125 784.730469 647.207031 783.695312 C 648.609375 782.664062 649.300781 781.210938 649.300781 779.339844 C 649.300781 778.25 648.960938 777.363281 648.28125 776.679688 C 647.589844 775.992188 646.726562 775.460938 645.679688 775.066406 C 644.632812 774.675781 643.242188 774.28125 641.511719 773.894531 C 639.222656 773.390625 637.359375 772.867188 635.917969 772.324219 C 634.476562 771.777344 633.273438 770.960938 632.296875 769.871094 C 631.3125 768.78125 630.832031 767.332031 630.832031 765.515625 C 630.832031 763.839844 631.261719 762.355469 632.125 761.074219 C 632.992188 759.789062 634.226562 758.800781 635.835938 758.097656 C 637.4375 757.398438 639.304688 757.054688 641.429688 757.054688 C 643.464844 757.054688 645.351562 757.378906 647.085938 758.039062 C 648.816406 758.695312 650.3125 759.664062 651.566406 760.949219 L 650.472656 763 C 649.078125 761.742188 647.65625 760.824219 646.203125 760.238281 C 644.75 759.652344 643.160156 759.355469 641.429688 759.355469 C 638.914062 759.355469 636.953125 759.898438 635.542969 760.988281 C 634.128906 762.078125 633.425781 763.574219 633.425781 765.472656 C 633.425781 767.121094 634.042969 768.351562 635.269531 769.15625 C 636.496094 769.96875 638.300781 770.652344 640.675781 771.210938 L 641.890625 771.503906 C 644.121094 772.035156 645.898438 772.550781 647.207031 773.054688 C 648.523438 773.554688 649.636719 774.316406 650.5625 775.316406 C 651.484375 776.324219 651.941406 777.667969 651.941406 779.339844 C 651.941406 780.957031 651.511719 782.390625 650.644531 783.636719 C 649.78125 784.875 648.542969 785.839844 646.933594 786.523438 C 645.328125 787.207031 643.464844 787.550781 641.347656 787.550781 C 639 787.550781 636.925781 787.234375 635.125 786.605469 Z M 635.125 786.605469 " clip-rule="nonzero"/></clipPath><clipPath id="b2681ebc73"><path d="M 0.328125 0.0546875 L 21.941406 0.0546875 L 21.941406 30.621094 L 0.328125 30.621094 Z M 0.328125 0.0546875 " clip-rule="nonzero"/></clipPath><clipPath id="570b8430e8"><path d="M 5.125 29.605469 C 3.320312 28.980469 1.726562 27.996094 0.328125 26.65625 L 1.417969 24.605469 C 2.898438 25.914062 4.398438 26.851562 5.917969 27.40625 C 7.4375 27.964844 9.246094 28.246094 11.347656 28.246094 C 13.859375 28.246094 15.8125 27.730469 17.207031 26.695312 C 18.609375 25.664062 19.300781 24.210938 19.300781 22.339844 C 19.300781 21.25 18.960938 20.363281 18.28125 19.679688 C 17.589844 18.992188 16.726562 18.460938 15.679688 18.066406 C 14.632812 17.675781 13.242188 17.28125 11.511719 16.894531 C 9.222656 16.390625 7.359375 15.867188 5.917969 15.324219 C 4.476562 14.777344 3.273438 13.960938 2.296875 12.871094 C 1.3125 11.78125 0.832031 10.332031 0.832031 8.515625 C 0.832031 6.839844 1.261719 5.355469 2.125 4.074219 C 2.992188 2.789062 4.226562 1.800781 5.835938 1.097656 C 7.4375 0.398438 9.304688 0.0546875 11.429688 0.0546875 C 13.464844 0.0546875 15.351562 0.378906 17.085938 1.039062 C 18.816406 1.695312 20.3125 2.664062 21.566406 3.949219 L 20.472656 6 C 19.078125 4.742188 17.65625 3.824219 16.203125 3.238281 C 14.75 2.652344 13.160156 2.355469 11.429688 2.355469 C 8.914062 2.355469 6.953125 2.898438 5.542969 3.988281 C 4.128906 5.078125 3.425781 6.574219 3.425781 8.472656 C 3.425781 10.121094 4.042969 11.351562 5.269531 12.15625 C 6.496094 12.96875 8.300781 13.652344 10.675781 14.210938 L 11.890625 14.503906 C 14.121094 15.035156 15.898438 15.550781 17.207031 16.054688 C 18.523438 16.554688 19.636719 17.316406 20.5625 18.316406 C 21.484375 19.324219 21.941406 20.667969 21.941406 22.339844 C 21.941406 23.957031 21.511719 25.390625 20.644531 26.636719 C 19.78125 27.875 18.542969 28.839844 16.933594 29.523438 C 15.328125 30.207031 13.464844 30.550781 11.347656 30.550781 C 9 30.550781 6.925781 30.234375 5.125 29.605469 Z M 5.125 29.605469 " clip-rule="nonzero"/></clipPath><clipPath id="3fcf202af0"><rect x="0" width="22" y="0" height="31"/></clipPath><clipPath id="168ac0f6fa"><path d="M 166.734375 379.941406 L 777.820312 379.941406 L 777.820312 565 L 166.734375 565 Z M 166.734375 379.941406 " clip-rule="nonzero"/></clipPath></defs><g clip-path="url(#80185269bc)"></g><g clip-path="url(#4c3c2018b1)"><g clip-path="url(#82a0181725)"><g transform="matrix(1, 0, 0, 1, 267, 631)"><g clip-path="url(#e8c71af523)"><g clip-path="url(#008169b353)"><g clip-path="url(#8c14221e56)"><path fill="#253746" d="M 0.457031 0.84375 L 31.746094 0.84375 L 31.746094 34.453125 L 0.457031 34.453125 Z M 0.457031 0.84375 " fill-opacity="1" fill-rule="nonzero"/></g></g></g></g></g></g><g clip-path="url(#1003c039cc)"><path fill="#253746" d="M 332.789062 653.847656 L 348.664062 653.847656 L 340.75 635.367188 Z M 353.613281 665.324219 L 349.792969 656.390625 L 331.707031 656.390625 L 327.847656 665.324219 L 324.832031 665.324219 L 339.433594 631.84375 L 342.070312 631.84375 L 356.625 665.324219 Z M 353.613281 665.324219 " fill-opacity="1" fill-rule="nonzero"/></g><g clip-path="url(#7468008716)"><path fill="#253746" d="M 394.8125 662.785156 C 399.394531 662.785156 402.839844 661.582031 405.148438 659.1875 C 407.453125 656.789062 408.609375 653.238281 408.609375 648.535156 C 408.609375 639.101562 404.007812 634.382812 394.8125 634.382812 L 387.035156 634.382812 L 387.035156 662.785156 Z M 384.097656 631.84375 L 394.953125 631.84375 C 400.328125 631.84375 404.46875 633.285156 407.378906 636.167969 C 410.28125 639.050781 411.738281 643.175781 411.738281 648.535156 C 411.738281 653.898438 410.273438 658.035156 407.355469 660.949219 C 404.429688 663.863281 400.296875 665.324219 394.953125 665.324219 L 384.097656 665.324219 Z M 384.097656 631.84375 " fill-opacity="1" fill-rule="nonzero"/></g><g clip-path="url(#317f905d40)"><g transform="matrix(1, 0, 0, 1, 436, 631)"><g clip-path="url(#2cd11a7d50)"><g clip-path="url(#b52aef24a2)"><path fill="#253746" d="M 0.777344 0.84375 L 3.707031 0.84375 L 3.707031 34.4375 L 0.777344 34.4375 Z M 0.777344 0.84375 " fill-opacity="1" fill-rule="nonzero"/></g></g></g></g><g clip-path="url(#efa6d7b7b9)"><g transform="matrix(1, 0, 0, 1, 468, 631)"><g clip-path="url(#5765777b98)"><g clip-path="url(#44f2a6a01c)"><path fill="#253746" d="M 0.375 0.84375 L 20.535156 0.84375 L 20.535156 34.308594 L 0.375 34.308594 Z M 0.375 0.84375 " fill-opacity="1" fill-rule="nonzero"/></g></g></g></g><g clip-path="url(#bc79a1e305)"><g clip-path="url(#ce7aba4334)"><g transform="matrix(1, 0, 0, 1, 517, 631)"><g clip-path="url(#94088b106d)"><g clip-path="url(#634a2b3fb0)"><g clip-path="url(#0aead67d0b)"><path fill="#253746" d="M 0.554688 0.773438 L 26.710938 0.773438 L 26.710938 34.898438 L 0.554688 34.898438 Z M 0.554688 0.773438 " fill-opacity="1" fill-rule="nonzero"/></g></g></g></g></g></g><g clip-path="url(#dce3895fd0)"><g clip-path="url(#8d9b44b9b1)"><g transform="matrix(1, 0, 0, 1, 570, 631)"><g clip-path="url(#5b231edd98)"><g clip-path="url(#d7aac80633)"><g clip-path="url(#fec5e67e73)"><path fill="#253746" d="M 0.976562 0.582031 L 25.15625 0.582031 L 25.15625 34.683594 L 0.976562 34.683594 Z M 0.976562 0.582031 " fill-opacity="1" fill-rule="nonzero"/></g></g></g></g></g></g><g clip-path="url(#71ac0e6fa0)"><g transform="matrix(1, 0, 0, 1, 618, 631)"><g clip-path="url(#d6ee78d1fb)"><g clip-path="url(#74fe853ab8)"><path fill="#253746" d="M 0.691406 0.84375 L 27.972656 0.84375 L 27.972656 34.410156 L 0.691406 34.410156 Z M 0.691406 0.84375 " fill-opacity="1" fill-rule="nonzero"/></g></g></g></g><g clip-path="url(#0e38ca515e)"><g transform="matrix(1, 0, 0, 1, 673, 631)"><g clip-path="url(#f625f3be3d)"><g clip-path="url(#fdbf04fc39)"><path fill="#253746" d="M 0.742188 0.84375 L 3.671875 0.84375 L 3.671875 34.4375 L 0.742188 34.4375 Z M 0.742188 0.84375 " fill-opacity="1" fill-rule="nonzero"/></g></g></g></g><g clip-path="url(#5bf2ff3758)"><path fill="#253746" d="M 181.148438 710.519531 C 183.46875 710.519531 185.226562 710.003906 186.417969 708.972656 C 187.605469 707.941406 188.199219 706.457031 188.199219 704.535156 C 188.199219 702.636719 187.605469 701.171875 186.417969 700.140625 C 185.226562 699.105469 183.46875 698.589844 181.148438 698.589844 L 172.523438 698.589844 L 172.523438 710.519531 Z M 169.949219 696.371094 L 181.316406 696.371094 C 184.273438 696.371094 186.597656 697.097656 188.28125 698.550781 C 189.96875 700 190.8125 701.996094 190.8125 704.535156 C 190.8125 707.101562 189.960938 709.121094 188.261719 710.582031 C 186.5625 712.050781 184.246094 712.78125 181.316406 712.78125 L 172.523438 712.78125 L 172.523438 726.179688 L 169.949219 726.179688 Z M 169.949219 696.371094 " fill-opacity="1" fill-rule="nonzero"/></g><g clip-path="url(#29a8639205)"><path fill="#253746" d="M 230.554688 710.605469 C 235.4375 710.605469 237.878906 708.566406 237.878906 704.488281 C 237.878906 700.550781 235.4375 698.585938 230.554688 698.585938 L 221.769531 698.585938 L 221.769531 710.605469 Z M 242.144531 726.179688 L 239.46875 726.179688 L 235.746094 716.257812 C 235.269531 714.917969 234.617188 714.015625 233.777344 713.554688 C 232.941406 713.09375 231.726562 712.867188 230.140625 712.867188 L 221.8125 712.867188 L 221.8125 726.179688 L 219.21875 726.179688 L 219.21875 696.367188 L 230.722656 696.367188 C 233.820312 696.367188 236.21875 697.074219 237.917969 698.480469 C 239.621094 699.890625 240.472656 701.910156 240.472656 704.53125 C 240.472656 706.457031 239.964844 708.078125 238.945312 709.390625 C 237.925781 710.703125 236.46875 711.625 234.574219 712.15625 C 235.4375 712.292969 236.175781 712.65625 236.789062 713.242188 C 237.402344 713.828125 237.917969 714.691406 238.339844 715.839844 Z M 242.144531 726.179688 " fill-opacity="1" fill-rule="nonzero"/></g><g clip-path="url(#11e6967cdb)"><g transform="matrix(1, 0, 0, 1, 270, 696)"><g clip-path="url(#59365d245d)"><g clip-path="url(#0b8d4c2cc9)"><path fill="#253746" d="M 0.324219 0.363281 L 2.9375 0.363281 L 2.9375 30.339844 L 0.324219 30.339844 Z M 0.324219 0.363281 " fill-opacity="1" fill-rule="nonzero"/></g></g></g></g><g clip-path="url(#7d02c60224)"><g clip-path="url(#626717b578)"><g transform="matrix(1, 0, 0, 1, 299, 696)"><g clip-path="url(#594d2de86f)"><g clip-path="url(#16ca5b66dd)"><g clip-path="url(#76276092ed)"><path fill="#253746" d="M 0.589844 0.363281 L 28.925781 0.363281 L 28.925781 30.359375 L 0.589844 30.359375 Z M 0.589844 0.363281 " fill-opacity="1" fill-rule="nonzero"/></g></g></g></g></g></g><g clip-path="url(#9bde1c1569)"><path fill="#253746" d="M 358.679688 715.964844 L 372.816406 715.964844 L 365.769531 699.507812 Z M 377.226562 726.183594 L 373.824219 718.226562 L 357.714844 718.226562 L 354.269531 726.183594 L 351.589844 726.183594 L 364.59375 696.367188 L 366.945312 696.367188 L 379.910156 726.183594 Z M 377.226562 726.183594 " fill-opacity="1" fill-rule="nonzero"/></g><g clip-path="url(#4e103c92ac)"><g transform="matrix(1, 0, 0, 1, 403, 696)"><g clip-path="url(#6094bd2531)"><g clip-path="url(#4b32b3f674)"><path fill="#253746" d="M 0.75 0.363281 L 24.835938 0.363281 L 24.835938 30.378906 L 0.75 30.378906 Z M 0.75 0.363281 " fill-opacity="1" fill-rule="nonzero"/></g></g></g></g><g clip-path="url(#544e1d0f84)"><g transform="matrix(1, 0, 0, 1, 454, 696)"><g clip-path="url(#f88cd16017)"><g clip-path="url(#994821f48c)"><path fill="#253746" d="M 0.503906 0.363281 L 18.988281 0.363281 L 18.988281 30.328125 L 0.503906 30.328125 Z M 0.503906 0.363281 " fill-opacity="1" fill-rule="nonzero"/></g></g></g></g><g clip-path="url(#32ec7cd4f1)"><g transform="matrix(1, 0, 0, 1, 517, 696)"><g clip-path="url(#f913e50977)"><g clip-path="url(#0602787fec)"><path fill="#253746" d="M 0.792969 0.363281 L 3.402344 0.363281 L 3.402344 30.339844 L 0.792969 30.339844 Z M 0.792969 0.363281 " fill-opacity="1" fill-rule="nonzero"/></g></g></g></g><g clip-path="url(#bf6117f1b3)"><g clip-path="url(#c918bb874a)"><g transform="matrix(1, 0, 0, 1, 548, 696)"><g clip-path="url(#6e563464fa)"><g clip-path="url(#70bcd65fd9)"><g clip-path="url(#4e3702f91a)"><path fill="#253746" d="M 0.929688 0.105469 L 22.546875 0.105469 L 22.546875 30.589844 L 0.929688 30.589844 Z M 0.929688 0.105469 " fill-opacity="1" fill-rule="nonzero"/></g></g></g></g></g></g><g clip-path="url(#ceb93fb75c)"><g transform="matrix(1, 0, 0, 1, 598, 696)"><g clip-path="url(#25075693cb)"><g clip-path="url(#1f3cd2444f)"><path fill="#253746" d="M 0.757812 0.363281 L 18.851562 0.363281 L 18.851562 30.328125 L 0.757812 30.328125 Z M 0.757812 0.363281 " fill-opacity="1" fill-rule="nonzero"/></g></g></g></g><g clip-path="url(#20b74376cd)"><path fill="#253746" d="M 647.96875 715.964844 L 662.109375 715.964844 L 655.058594 699.507812 Z M 666.511719 726.183594 L 663.117188 718.226562 L 647.003906 718.226562 L 643.5625 726.183594 L 640.875 726.183594 L 653.882812 696.367188 L 656.230469 696.367188 L 669.199219 726.183594 Z M 666.511719 726.183594 " fill-opacity="1" fill-rule="nonzero"/></g><g clip-path="url(#33f0b29847)"><g clip-path="url(#9d3e347637)"><g transform="matrix(1, 0, 0, 1, 696, 696)"><g clip-path="url(#5404eb5915)"><g clip-path="url(#99a1ee2f05)"><g clip-path="url(#be3a5fe92d)"><path fill="#253746" d="M 0.351562 0.363281 L 23.847656 0.363281 L 23.847656 30.375 L 0.351562 30.375 Z M 0.351562 0.363281 " fill-opacity="1" fill-rule="nonzero"/></g></g></g></g></g></g><g clip-path="url(#4f86e3c9f9)"><path fill="#253746" d="M 759.257812 723.917969 C 763.289062 723.917969 766.324219 722.851562 768.355469 720.714844 C 770.390625 718.578125 771.40625 715.417969 771.40625 711.234375 C 771.40625 702.832031 767.355469 698.632812 759.257812 698.632812 L 752.410156 698.632812 L 752.410156 723.917969 Z M 749.820312 696.371094 L 759.382812 696.371094 C 764.113281 696.371094 767.757812 697.65625 770.320312 700.21875 C 772.878906 702.789062 774.160156 706.460938 774.160156 711.234375 C 774.160156 716.003906 772.875 719.691406 770.296875 722.285156 C 767.722656 724.882812 764.085938 726.179688 759.382812 726.179688 L 749.820312 726.179688 Z M 749.820312 696.371094 " fill-opacity="1" fill-rule="nonzero"/></g><g clip-path="url(#7649e3870a)"><g clip-path="url(#ce3fc32888)"><g transform="matrix(1, 0, 0, 1, 292, 757)"><g clip-path="url(#a77798df19)"><g clip-path="url(#f1be758fd9)"><g clip-path="url(#7b9486b29b)"><path fill="#253746" d="M 0.386719 0.308594 L 28.300781 0.308594 L 28.300781 30.292969 L 0.386719 30.292969 Z M 0.386719 0.308594 " fill-opacity="1" fill-rule="nonzero"/></g></g></g></g></g></g><g clip-path="url(#14cfc0ee4f)"><path fill="#253746" d="M 354.558594 776.910156 L 368.699219 776.910156 L 361.648438 760.457031 Z M 373.105469 787.125 L 369.707031 779.171875 L 353.597656 779.171875 L 350.152344 787.125 L 347.46875 787.125 L 360.476562 757.3125 L 362.828125 757.3125 L 375.789062 787.125 Z M 373.105469 787.125 " fill-opacity="1" fill-rule="nonzero"/></g><g clip-path="url(#b43a9b164f)"><g transform="matrix(1, 0, 0, 1, 403, 757)"><g clip-path="url(#84ec7fb19c)"><g clip-path="url(#cce4e8662b)"><path fill="#253746" d="M 0.105469 0.308594 L 18.199219 0.308594 L 18.199219 30.273438 L 0.105469 30.273438 Z M 0.105469 0.308594 " fill-opacity="1" fill-rule="nonzero"/></g></g></g></g><g clip-path="url(#28fce562ad)"><path fill="#253746" d="M 457.304688 784.863281 C 461.339844 784.863281 464.371094 783.792969 466.402344 781.664062 C 468.433594 779.527344 469.453125 776.363281 469.453125 772.175781 C 469.453125 763.78125 465.402344 759.578125 457.304688 759.578125 L 450.453125 759.578125 L 450.453125 784.863281 Z M 447.863281 757.316406 L 457.425781 757.316406 C 462.160156 757.316406 465.804688 758.601562 468.363281 761.167969 C 470.925781 763.734375 472.203125 767.410156 472.203125 772.175781 C 472.203125 776.949219 470.921875 780.636719 468.34375 783.226562 C 465.769531 785.824219 462.132812 787.125 457.425781 787.125 L 447.863281 787.125 Z M 447.863281 757.316406 " fill-opacity="1" fill-rule="nonzero"/></g><g clip-path="url(#2131c91d0c)"><g transform="matrix(1, 0, 0, 1, 501, 757)"><g clip-path="url(#d1f580b884)"><g clip-path="url(#5668d48cd2)"><path fill="#253746" d="M 0.152344 0.308594 L 2.765625 0.308594 L 2.765625 30.292969 L 0.152344 30.292969 Z M 0.152344 0.308594 " fill-opacity="1" fill-rule="nonzero"/></g></g></g></g><g clip-path="url(#0060c0150f)"><g clip-path="url(#e4e40ed4f8)"><g transform="matrix(1, 0, 0, 1, 530, 757)"><g clip-path="url(#bd8eb558c5)"><g clip-path="url(#5ec8c87ebb)"><g clip-path="url(#e1e6038aa2)"><path fill="#253746" d="M 0.414062 0.308594 L 28.75 0.308594 L 28.75 30.304688 L 0.414062 30.304688 Z M 0.414062 0.308594 " fill-opacity="1" fill-rule="nonzero"/></g></g></g></g></g></g><g clip-path="url(#9487958a7f)"><g transform="matrix(1, 0, 0, 1, 585, 757)"><g clip-path="url(#988132a6ce)"><g clip-path="url(#5846b77a9c)"><path fill="#253746" d="M 0.136719 0.308594 L 18.621094 0.308594 L 18.621094 30.269531 L 0.136719 30.269531 Z M 0.136719 0.308594 " fill-opacity="1" fill-rule="nonzero"/></g></g></g></g><g clip-path="url(#0cdb40d7ee)"><g clip-path="url(#0cf17e9493)"><g transform="matrix(1, 0, 0, 1, 630, 757)"><g clip-path="url(#3fcf202af0)"><g clip-path="url(#b2681ebc73)"><g clip-path="url(#570b8430e8)"><path fill="#253746" d="M 0.328125 0.0546875 L 21.941406 0.0546875 L 21.941406 30.535156 L 0.328125 30.535156 Z M 0.328125 0.0546875 " fill-opacity="1" fill-rule="nonzero"/></g></g></g></g></g></g><g clip-path="url(#168ac0f6fa)"><path fill="#253746" d="M 595.710938 487.625 C 592.078125 487.976562 588.421875 488.386719 584.75 488.839844 C 592.054688 486.582031 599.257812 484.648438 606.332031 482.988281 C 602.832031 484.453125 599.289062 486 595.710938 487.625 M 572.691406 498.988281 C 566.886719 499.105469 561.0625 499.296875 555.261719 499.578125 C 561.023438 497.148438 566.757812 494.945312 572.445312 492.929688 C 578.0625 492.035156 583.664062 491.28125 589.226562 490.648438 C 583.800781 493.238281 578.289062 496.011719 572.691406 498.988281 M 549.238281 511.46875 C 542.90625 511.257812 536.574219 511.085938 530.308594 510.957031 C 533.710938 509.441406 537.058594 507.90625 540.316406 506.328125 C 543.269531 504.902344 546.210938 503.542969 549.152344 502.230469 C 555.460938 501.859375 561.820312 501.589844 568.164062 501.417969 C 561.816406 504.882812 555.511719 508.226562 549.238281 511.46875 M 522.457031 524.621094 C 514.714844 524.101562 507.011719 523.574219 499.488281 523.050781 C 508.359375 519.988281 516.9375 516.6875 525.152344 513.1875 C 531.6875 513.296875 538.320312 513.460938 544.976562 513.664062 C 537.4375 517.5 529.941406 521.152344 522.457031 524.621094 M 473.980469 521.210938 C 483.527344 518.851562 492.683594 516.101562 501.335938 513.023438 C 507.179688 512.992188 513.207031 513.019531 519.351562 513.097656 C 511.0625 516.492188 502.441406 519.691406 493.546875 522.632812 C 486.804688 522.15625 480.25 521.679688 473.980469 521.210938 M 449.097656 519.253906 C 459.1875 517.894531 468.738281 515.945312 477.667969 513.53125 C 482.824219 513.316406 488.257812 513.175781 493.90625 513.09375 C 485.136719 515.960938 475.929688 518.5 466.347656 520.632812 C 460.210938 520.160156 454.421875 519.699219 449.097656 519.253906 M 426.640625 517.152344 C 436.164062 517.113281 444.753906 516.539062 452.109375 515.550781 C 455.808594 515.054688 459.898438 514.640625 464.3125 514.300781 C 455.75 516.050781 446.726562 517.375 437.320312 518.21875 C 433.292969 517.847656 429.707031 517.492188 426.640625 517.152344 M 514.070312 505.679688 C 512.734375 506.1875 511.40625 506.703125 510.089844 507.238281 C 507.109375 508.433594 504.03125 509.578125 500.914062 510.695312 C 496.273438 510.71875 491.757812 510.785156 487.390625 510.886719 C 495.71875 508.75 504.6875 507.035156 514.070312 505.679688 M 542.625 502.660156 C 541.519531 503.179688 540.410156 503.691406 539.300781 504.230469 C 534.605469 506.503906 529.75 508.710938 524.753906 510.851562 C 518.949219 510.753906 513.226562 510.695312 507.640625 510.683594 C 508.75 510.257812 509.871094 509.839844 510.960938 509.398438 C 515.566406 507.546875 520.246094 505.847656 524.96875 504.277344 C 530.761719 503.621094 536.664062 503.085938 542.625 502.660156 M 559.871094 495.167969 C 556.117188 496.667969 552.347656 498.257812 548.566406 499.9375 C 544.40625 500.191406 540.269531 500.484375 536.167969 500.835938 C 544.003906 498.617188 551.929688 496.738281 559.871094 495.167969 M 776.496094 467.882812 L 777.355469 465.710938 C 776.644531 465.429688 715.015625 441.898438 619.230469 477.859375 C 604.050781 480.765625 588.144531 484.910156 571.851562 490.667969 C 555.945312 493.210938 539.929688 496.871094 524.445312 501.996094 C 508.777344 503.773438 493.925781 506.429688 480.910156 510.238281 C 479.746094 510.578125 478.535156 510.886719 477.347656 511.210938 C 467.683594 511.617188 459.011719 512.273438 451.796875 513.238281 C 439.125 514.941406 422.84375 515.453125 404.167969 513.945312 C 315.253906 498.5625 232.183594 451.492188 168.472656 379.941406 L 166.734375 381.492188 C 223.925781 445.722656 296.644531 490.324219 375.21875 510.167969 C 320.957031 500.488281 254.15625 474.039062 195.824219 415.339844 L 194.171875 416.984375 C 263.753906 487.003906 345.378906 511.480469 403.777344 516.246094 C 410.265625 517.367188 416.78125 518.335938 423.328125 519.121094 C 359.828125 521.539062 282.980469 502.875 223.160156 450.726562 L 221.628906 452.484375 C 278.539062 502.097656 350.738281 521.652344 412.511719 521.652344 C 420.949219 521.652344 429.167969 521.253906 437.15625 520.550781 C 443.253906 521.113281 450.347656 521.710938 458.171875 522.335938 C 391.789062 535.269531 310.730469 529.171875 250.46875 486.101562 L 249.113281 488 C 291.84375 518.539062 344.894531 530.671875 395.894531 530.667969 C 420.335938 530.667969 444.292969 527.863281 466.425781 522.980469 C 473.117188 523.492188 480.214844 524.019531 487.574219 524.546875 C 418.890625 546.09375 336.136719 552.363281 277.730469 521.464844 L 276.640625 523.527344 C 305.300781 538.691406 339.722656 545.003906 375.496094 545.003906 C 415.324219 545 456.804688 537.164062 493.8125 524.988281 C 501.691406 525.546875 509.808594 526.105469 518 526.65625 C 451.019531 557.050781 385.226562 571.632812 304.792969 556.792969 L 304.371094 559.085938 C 326.191406 563.113281 346.921875 564.992188 366.902344 564.992188 C 422.566406 564.988281 472.320312 550.390625 522.898438 526.988281 C 580.941406 530.875 640.796875 534.351562 641.820312 534.414062 L 641.957031 532.082031 C 640.957031 532.023438 583.945312 528.710938 527.285156 524.941406 C 534.757812 521.414062 542.253906 517.703125 549.792969 513.816406 C 608.21875 515.757812 666.296875 520.542969 667.246094 520.621094 L 667.4375 518.296875 C 666.507812 518.21875 611.089844 513.652344 553.996094 511.628906 C 559.195312 508.914062 564.410156 506.132812 569.652344 503.265625 C 570.882812 502.597656 572.09375 501.953125 573.3125 501.304688 C 634.882812 500.125 693.695312 507.339844 694.59375 507.449219 L 694.882812 505.136719 C 694.007812 505.027344 637.945312 498.152344 577.867188 498.90625 C 584.136719 495.65625 590.296875 492.660156 596.339844 489.90625 C 662.660156 483.558594 721.089844 494.121094 721.921875 494.273438 L 722.347656 491.984375 C 721.539062 491.832031 666.710938 481.917969 602.847656 487 C 608.640625 484.488281 614.316406 482.195312 619.882812 480.101562 C 692.632812 466.21875 748.476562 480.886719 749.222656 481.089844 L 749.835938 478.835938 C 749.132812 478.644531 699.464844 465.589844 632.71875 475.558594 C 720.296875 446.472656 775.820312 467.609375 776.496094 467.882812 " fill-opacity="1" fill-rule="nonzero"/></g></svg>